<?xml version="1.0" encoding="UTF-8" standalone="no"?>
<!DOCTYPE svg PUBLIC "-//W3C//DTD SVG 1.1//EN"
 "http://www.w3.org/Graphics/SVG/1.1/DTD/svg11.dtd">
<!-- Generated by graphviz version 2.38.0 (20140413.2041)
 -->
<!-- Title: %3 Pages: 1 -->
<svg width="2902pt" height="244pt"
 viewBox="0.00 0.00 2902.00 244.00" xmlns="http://www.w3.org/2000/svg" xmlns:xlink="http://www.w3.org/1999/xlink">
<g id="graph0" class="graph" transform="scale(1 1) rotate(0) translate(4 240)">
<title>%3</title>
<polygon fill="white" stroke="none" points="-4,4 -4,-240 2898,-240 2898,4 -4,4"/>
<!-- 1 -->
<g id="node1" class="node"><title>1</title>
<polygon fill="#39bf09" stroke="#39bf09" points="91,-230.5 0,-230.5 0,-189.5 91,-189.5 91,-230.5"/>
<text text-anchor="middle" x="45.5" y="-218.5" font-family="Arial" font-size="10.00" fill="#ffffff">_mcount_internal</text>
<text text-anchor="middle" x="45.5" y="-207.5" font-family="Arial" font-size="10.00" fill="#ffffff">56.64%</text>
<text text-anchor="middle" x="45.5" y="-196.5" font-family="Arial" font-size="10.00" fill="#ffffff">(56.64%)</text>
</g>
<!-- 2 -->
<g id="node2" class="node"><title>2</title>
<polygon fill="#0ba35e" stroke="#0ba35e" points="198.5,-230.5 100.5,-230.5 100.5,-189.5 198.5,-189.5 198.5,-230.5"/>
<text text-anchor="middle" x="149.5" y="-218.5" font-family="Arial" font-size="10.00" fill="#ffffff">vPortYieldFromISR</text>
<text text-anchor="middle" x="149.5" y="-207.5" font-family="Arial" font-size="10.00" fill="#ffffff">36.33%</text>
<text text-anchor="middle" x="149.5" y="-196.5" font-family="Arial" font-size="10.00" fill="#ffffff">(36.33%)</text>
</g>
<!-- 3 -->
<g id="node3" class="node"><title>3</title>
<polygon fill="#0d1f78" stroke="#0d1f78" points="437,-144 332,-144 332,-92 437,-92 437,-144"/>
<text text-anchor="middle" x="384.5" y="-132" font-family="Arial" font-size="10.00" fill="#ffffff">LCD_Text_PrintChar</text>
<text text-anchor="middle" x="384.5" y="-121" font-family="Arial" font-size="10.00" fill="#ffffff">4.30%</text>
<text text-anchor="middle" x="384.5" y="-110" font-family="Arial" font-size="10.00" fill="#ffffff">(1.17%)</text>
<text text-anchor="middle" x="384.5" y="-99" font-family="Arial" font-size="10.00" fill="#ffffff">5793×</text>
</g>
<!-- 4 -->
<g id="node4" class="node"><title>4</title>
<polygon fill="#0d1a77" stroke="#0d1a77" points="391.5,-52 251.5,-52 251.5,-0 391.5,-0 391.5,-52"/>
<text text-anchor="middle" x="321.5" y="-40" font-family="Arial" font-size="10.00" fill="#ffffff">LCD_Write_Rectangle_Pixel</text>
<text text-anchor="middle" x="321.5" y="-29" font-family="Arial" font-size="10.00" fill="#ffffff">3.12%</text>
<text text-anchor="middle" x="321.5" y="-18" font-family="Arial" font-size="10.00" fill="#ffffff">(3.12%)</text>
<text text-anchor="middle" x="321.5" y="-7" font-family="Arial" font-size="10.00" fill="#ffffff">571507×</text>
</g>
<!-- 3&#45;&gt;4 -->
<g id="edge1" class="edge"><title>3&#45;&gt;4</title>
<path fill="none" stroke="#0d1a77" stroke-width="0.5" d="M358.483,-91.6799C356.012,-88.8442 353.636,-85.9222 351.5,-83 345.298,-74.5141 339.556,-64.586 334.792,-55.4653"/>
<polygon fill="#0d1a77" stroke="#0d1a77" stroke-width="0.5" points="335.773,-54.696 333.081,-52.1457 333.595,-55.8181 335.773,-54.696"/>
<text text-anchor="middle" x="370.5" y="-75" font-family="Arial" font-size="10.00" fill="#0d1a77">3.12%</text>
<text text-anchor="middle" x="370.5" y="-64" font-family="Arial" font-size="10.00" fill="#0d1a77">571507×</text>
</g>
<!-- 11 -->
<g id="node5" class="node"><title>11</title>
<polygon fill="#0d0d73" stroke="#0d0d73" points="510.5,-52 400.5,-52 400.5,-0 510.5,-0 510.5,-52"/>
<text text-anchor="middle" x="455.5" y="-40" font-family="Arial" font-size="10.00" fill="#ffffff">LCD_Start_Rectangle</text>
<text text-anchor="middle" x="455.5" y="-29" font-family="Arial" font-size="10.00" fill="#ffffff">0.00%</text>
<text text-anchor="middle" x="455.5" y="-18" font-family="Arial" font-size="10.00" fill="#ffffff">(0.00%)</text>
<text text-anchor="middle" x="455.5" y="-7" font-family="Arial" font-size="10.00" fill="#ffffff">5794×</text>
</g>
<!-- 3&#45;&gt;11 -->
<g id="edge2" class="edge"><title>3&#45;&gt;11</title>
<path fill="none" stroke="#0d0d73" stroke-width="0.5" d="M398.932,-91.8994C405.096,-81.9259 412.67,-70.5724 420.5,-61 422.196,-58.9263 424.008,-56.8461 425.88,-54.7926"/>
<polygon fill="#0d0d73" stroke="#0d0d73" stroke-width="0.5" points="426.979,-55.4095 428.465,-52.0121 425.184,-53.7412 426.979,-55.4095"/>
<text text-anchor="middle" x="434.5" y="-75" font-family="Arial" font-size="10.00" fill="#0d0d73">0.00%</text>
<text text-anchor="middle" x="434.5" y="-64" font-family="Arial" font-size="10.00" fill="#0d0d73">1×</text>
</g>
<!-- 5 -->
<g id="node6" class="node"><title>5</title>
<polygon fill="#0d1776" stroke="#0d1776" points="325,-230.5 208,-230.5 208,-189.5 325,-189.5 325,-230.5"/>
<text text-anchor="middle" x="266.5" y="-218.5" font-family="Arial" font-size="10.00" fill="#ffffff">DacLdd1_DMA0_ChInit</text>
<text text-anchor="middle" x="266.5" y="-207.5" font-family="Arial" font-size="10.00" fill="#ffffff">2.35%</text>
<text text-anchor="middle" x="266.5" y="-196.5" font-family="Arial" font-size="10.00" fill="#ffffff">(0.00%)</text>
</g>
<!-- 5&#45;&gt;3 -->
<g id="edge3" class="edge"><title>5&#45;&gt;3</title>
<path fill="none" stroke="#0d1776" stroke-width="0.5" d="M279.36,-189.479C289.695,-173.885 302.766,-154.406 304.5,-153 312.705,-146.345 316.76,-148.091 326.5,-144 327.144,-143.729 327.793,-143.457 328.444,-143.182"/>
<polygon fill="#0d1776" stroke="#0d1776" stroke-width="0.5" points="328.979,-144.286 331.727,-141.796 328.026,-142.029 328.979,-144.286"/>
<text text-anchor="middle" x="318.5" y="-167" font-family="Arial" font-size="10.00" fill="#0d1776">2.35%</text>
<text text-anchor="middle" x="318.5" y="-156" font-family="Arial" font-size="10.00" fill="#0d1776">3171×</text>
</g>
<!-- 19 -->
<g id="node7" class="node"><title>19</title>
<polygon fill="#0d0d73" stroke="#0d0d73" points="322.5,-144 196.5,-144 196.5,-92 322.5,-92 322.5,-144"/>
<text text-anchor="middle" x="259.5" y="-132" font-family="Arial" font-size="10.00" fill="#ffffff">convert_xyz_to_roll_pitch</text>
<text text-anchor="middle" x="259.5" y="-121" font-family="Arial" font-size="10.00" fill="#ffffff">0.00%</text>
<text text-anchor="middle" x="259.5" y="-110" font-family="Arial" font-size="10.00" fill="#ffffff">(0.00%)</text>
<text text-anchor="middle" x="259.5" y="-99" font-family="Arial" font-size="10.00" fill="#ffffff">224×</text>
</g>
<!-- 5&#45;&gt;19 -->
<g id="edge4" class="edge"><title>5&#45;&gt;19</title>
<path fill="none" stroke="#0d0d73" stroke-width="0.5" d="M263.961,-189.245C263.421,-184.58 262.895,-179.619 262.5,-175 261.745,-166.172 261.148,-156.545 260.691,-147.801"/>
<polygon fill="#0d0d73" stroke="#0d0d73" stroke-width="0.5" points="261.905,-147.546 260.504,-144.113 259.458,-147.67 261.905,-147.546"/>
<text text-anchor="middle" x="276.5" y="-167" font-family="Arial" font-size="10.00" fill="#0d0d73">0.00%</text>
<text text-anchor="middle" x="276.5" y="-156" font-family="Arial" font-size="10.00" fill="#0d0d73">123×</text>
</g>
<!-- 6 -->
<g id="node8" class="node"><title>6</title>
<polygon fill="#0d1575" stroke="#0d1575" points="430,-230.5 341,-230.5 341,-189.5 430,-189.5 430,-230.5"/>
<text text-anchor="middle" x="385.5" y="-218.5" font-family="Arial" font-size="10.00" fill="#ffffff">CmdParserTable</text>
<text text-anchor="middle" x="385.5" y="-207.5" font-family="Arial" font-size="10.00" fill="#ffffff">1.94%</text>
<text text-anchor="middle" x="385.5" y="-196.5" font-family="Arial" font-size="10.00" fill="#ffffff">(0.00%)</text>
</g>
<!-- 6&#45;&gt;3 -->
<g id="edge5" class="edge"><title>6&#45;&gt;3</title>
<path fill="none" stroke="#0d1575" stroke-width="0.5" d="M385.283,-189.471C385.149,-177.374 384.973,-161.614 384.823,-148.067"/>
<polygon fill="#0d1575" stroke="#0d1575" stroke-width="0.5" points="386.045,-147.796 384.781,-144.31 383.595,-147.823 386.045,-147.796"/>
<text text-anchor="middle" x="399.5" y="-167" font-family="Arial" font-size="10.00" fill="#0d1575">1.94%</text>
<text text-anchor="middle" x="399.5" y="-156" font-family="Arial" font-size="10.00" fill="#0d1575">2622×</text>
</g>
<!-- 6&#45;&gt;11 -->
<g id="edge6" class="edge"><title>6&#45;&gt;11</title>
<path fill="none" stroke="#0d0d73" stroke-width="0.5" d="M408.104,-189.344C420.145,-177.493 433.986,-161.36 441.5,-144 453.738,-115.727 456.422,-80.2304 456.558,-55.7924"/>
<polygon fill="#0d0d73" stroke="#0d0d73" stroke-width="0.5" points="457.783,-55.7701 456.561,-52.2692 455.333,-55.7683 457.783,-55.7701"/>
<text text-anchor="middle" x="468.5" y="-121" font-family="Arial" font-size="10.00" fill="#0d0d73">0.00%</text>
<text text-anchor="middle" x="468.5" y="-110" font-family="Arial" font-size="10.00" fill="#0d0d73">5793×</text>
</g>
<!-- 6&#45;&gt;19 -->
<g id="edge7" class="edge"><title>6&#45;&gt;19</title>
<path fill="none" stroke="#0d0d73" stroke-width="0.5" d="M367.713,-189.498C354.887,-175.711 338.482,-158.705 330.5,-153 327.112,-150.579 323.525,-148.252 319.834,-146.032"/>
<polygon fill="#0d0d73" stroke="#0d0d73" stroke-width="0.5" points="320.349,-144.914 316.711,-144.193 319.105,-147.025 320.349,-144.914"/>
<text text-anchor="middle" x="367.5" y="-167" font-family="Arial" font-size="10.00" fill="#0d0d73">0.00%</text>
<text text-anchor="middle" x="367.5" y="-156" font-family="Arial" font-size="10.00" fill="#0d0d73">101×</text>
</g>
<!-- 7 -->
<g id="node9" class="node"><title>7</title>
<polygon fill="#0d1274" stroke="#0d1274" points="536,-230.5 439,-230.5 439,-189.5 536,-189.5 536,-230.5"/>
<text text-anchor="middle" x="487.5" y="-218.5" font-family="Arial" font-size="10.00" fill="#ffffff">Refill_Sound_Task</text>
<text text-anchor="middle" x="487.5" y="-207.5" font-family="Arial" font-size="10.00" fill="#ffffff">1.17%</text>
<text text-anchor="middle" x="487.5" y="-196.5" font-family="Arial" font-size="10.00" fill="#ffffff">(1.17%)</text>
</g>
<!-- 8 -->
<g id="node10" class="node"><title>8</title>
<polygon fill="#0d1074" stroke="#0d1074" points="641.5,-230.5 545.5,-230.5 545.5,-189.5 641.5,-189.5 641.5,-230.5"/>
<text text-anchor="middle" x="593.5" y="-218.5" font-family="Arial" font-size="10.00" fill="#ffffff">__gnu_mcount_nc</text>
<text text-anchor="middle" x="593.5" y="-207.5" font-family="Arial" font-size="10.00" fill="#ffffff">0.78%</text>
<text text-anchor="middle" x="593.5" y="-196.5" font-family="Arial" font-size="10.00" fill="#ffffff">(0.78%)</text>
</g>
<!-- 9 -->
<g id="node11" class="node"><title>9</title>
<polygon fill="#0d0e73" stroke="#0d0e73" points="758,-230.5 651,-230.5 651,-189.5 758,-189.5 758,-230.5"/>
<text text-anchor="middle" x="704.5" y="-218.5" font-family="Arial" font-size="10.00" fill="#ffffff">GI2C1_ReadAddress</text>
<text text-anchor="middle" x="704.5" y="-207.5" font-family="Arial" font-size="10.00" fill="#ffffff">0.39%</text>
<text text-anchor="middle" x="704.5" y="-196.5" font-family="Arial" font-size="10.00" fill="#ffffff">(0.39%)</text>
</g>
<!-- 10 -->
<g id="node12" class="node"><title>10</title>
<polygon fill="#0d0e73" stroke="#0d0e73" points="920,-230.5 767,-230.5 767,-189.5 920,-189.5 920,-230.5"/>
<text text-anchor="middle" x="843.5" y="-218.5" font-family="Arial" font-size="10.00" fill="#ffffff">Sound_Generate_Next_Sample</text>
<text text-anchor="middle" x="843.5" y="-207.5" font-family="Arial" font-size="10.00" fill="#ffffff">0.39%</text>
<text text-anchor="middle" x="843.5" y="-196.5" font-family="Arial" font-size="10.00" fill="#ffffff">(0.39%)</text>
</g>
<!-- 12 -->
<g id="node13" class="node"><title>12</title>
<polygon fill="#0d0d73" stroke="#0d0d73" points="1013.5,-236 929.5,-236 929.5,-184 1013.5,-184 1013.5,-236"/>
<text text-anchor="middle" x="971.5" y="-224" font-family="Arial" font-size="10.00" fill="#ffffff">CLS1_GetStdio</text>
<text text-anchor="middle" x="971.5" y="-213" font-family="Arial" font-size="10.00" fill="#ffffff">0.00%</text>
<text text-anchor="middle" x="971.5" y="-202" font-family="Arial" font-size="10.00" fill="#ffffff">(0.00%)</text>
<text text-anchor="middle" x="971.5" y="-191" font-family="Arial" font-size="10.00" fill="#ffffff">669×</text>
</g>
<!-- 13 -->
<g id="node14" class="node"><title>13</title>
<polygon fill="#0d0d73" stroke="#0d0d73" points="1108,-236 1023,-236 1023,-184 1108,-184 1108,-236"/>
<text text-anchor="middle" x="1065.5" y="-224" font-family="Arial" font-size="10.00" fill="#ffffff">LCD_Plot_Pixel</text>
<text text-anchor="middle" x="1065.5" y="-213" font-family="Arial" font-size="10.00" fill="#ffffff">0.00%</text>
<text text-anchor="middle" x="1065.5" y="-202" font-family="Arial" font-size="10.00" fill="#ffffff">(0.00%)</text>
<text text-anchor="middle" x="1065.5" y="-191" font-family="Arial" font-size="10.00" fill="#ffffff">500×</text>
</g>
<!-- 14 -->
<g id="node15" class="node"><title>14</title>
<polygon fill="#0d0d73" stroke="#0d0d73" points="1185.5,-144 1069.5,-144 1069.5,-92 1185.5,-92 1185.5,-144"/>
<text text-anchor="middle" x="1127.5" y="-132" font-family="Arial" font-size="10.00" fill="#ffffff">LCD_Text_PrintStr_RC</text>
<text text-anchor="middle" x="1127.5" y="-121" font-family="Arial" font-size="10.00" fill="#ffffff">0.00%</text>
<text text-anchor="middle" x="1127.5" y="-110" font-family="Arial" font-size="10.00" fill="#ffffff">(0.00%)</text>
<text text-anchor="middle" x="1127.5" y="-99" font-family="Arial" font-size="10.00" fill="#ffffff">448×</text>
</g>
<!-- 15 -->
<g id="node16" class="node"><title>15</title>
<polygon fill="#0d0d73" stroke="#0d0d73" points="1320,-236 1221,-236 1221,-184 1320,-184 1320,-236"/>
<text text-anchor="middle" x="1270.5" y="-224" font-family="Arial" font-size="10.00" fill="#ffffff">CLS1_KeyPressed</text>
<text text-anchor="middle" x="1270.5" y="-213" font-family="Arial" font-size="10.00" fill="#ffffff">0.00%</text>
<text text-anchor="middle" x="1270.5" y="-202" font-family="Arial" font-size="10.00" fill="#ffffff">(0.00%)</text>
<text text-anchor="middle" x="1270.5" y="-191" font-family="Arial" font-size="10.00" fill="#ffffff">446×</text>
</g>
<!-- 16 -->
<g id="node17" class="node"><title>16</title>
<polygon fill="#0d0d73" stroke="#0d0d73" points="1186,-52 1115,-52 1115,-0 1186,-0 1186,-52"/>
<text text-anchor="middle" x="1150.5" y="-40" font-family="Arial" font-size="10.00" fill="#ffffff">MMA1_GetX</text>
<text text-anchor="middle" x="1150.5" y="-29" font-family="Arial" font-size="10.00" fill="#ffffff">0.00%</text>
<text text-anchor="middle" x="1150.5" y="-18" font-family="Arial" font-size="10.00" fill="#ffffff">(0.00%)</text>
<text text-anchor="middle" x="1150.5" y="-7" font-family="Arial" font-size="10.00" fill="#ffffff">224×</text>
</g>
<!-- 17 -->
<g id="node18" class="node"><title>17</title>
<polygon fill="#0d0d73" stroke="#0d0d73" points="1268,-52 1195,-52 1195,-0 1268,-0 1268,-52"/>
<text text-anchor="middle" x="1231.5" y="-40" font-family="Arial" font-size="10.00" fill="#ffffff">MMA1_GetY</text>
<text text-anchor="middle" x="1231.5" y="-29" font-family="Arial" font-size="10.00" fill="#ffffff">0.00%</text>
<text text-anchor="middle" x="1231.5" y="-18" font-family="Arial" font-size="10.00" fill="#ffffff">(0.00%)</text>
<text text-anchor="middle" x="1231.5" y="-7" font-family="Arial" font-size="10.00" fill="#ffffff">224×</text>
</g>
<!-- 18 -->
<g id="node19" class="node"><title>18</title>
<polygon fill="#0d0d73" stroke="#0d0d73" points="1348,-52 1277,-52 1277,-0 1348,-0 1348,-52"/>
<text text-anchor="middle" x="1312.5" y="-40" font-family="Arial" font-size="10.00" fill="#ffffff">MMA1_GetZ</text>
<text text-anchor="middle" x="1312.5" y="-29" font-family="Arial" font-size="10.00" fill="#ffffff">0.00%</text>
<text text-anchor="middle" x="1312.5" y="-18" font-family="Arial" font-size="10.00" fill="#ffffff">(0.00%)</text>
<text text-anchor="middle" x="1312.5" y="-7" font-family="Arial" font-size="10.00" fill="#ffffff">224×</text>
</g>
<!-- 20 -->
<g id="node20" class="node"><title>20</title>
<polygon fill="#0d0d73" stroke="#0d0d73" points="1478,-236 1329,-236 1329,-184 1478,-184 1478,-236"/>
<text text-anchor="middle" x="1403.5" y="-224" font-family="Arial" font-size="10.00" fill="#ffffff">UTIL1_ScanDecimal8uNumber</text>
<text text-anchor="middle" x="1403.5" y="-213" font-family="Arial" font-size="10.00" fill="#ffffff">0.00%</text>
<text text-anchor="middle" x="1403.5" y="-202" font-family="Arial" font-size="10.00" fill="#ffffff">(0.00%)</text>
<text text-anchor="middle" x="1403.5" y="-191" font-family="Arial" font-size="10.00" fill="#ffffff">223×</text>
</g>
<!-- 21 -->
<g id="node21" class="node"><title>21</title>
<polygon fill="#0d0d73" stroke="#0d0d73" points="1268.5,-144 1194.5,-144 1194.5,-92 1268.5,-92 1268.5,-144"/>
<text text-anchor="middle" x="1231.5" y="-132" font-family="Arial" font-size="10.00" fill="#ffffff">read_full_xyz</text>
<text text-anchor="middle" x="1231.5" y="-121" font-family="Arial" font-size="10.00" fill="#ffffff">0.00%</text>
<text text-anchor="middle" x="1231.5" y="-110" font-family="Arial" font-size="10.00" fill="#ffffff">(0.00%)</text>
<text text-anchor="middle" x="1231.5" y="-99" font-family="Arial" font-size="10.00" fill="#ffffff">223×</text>
</g>
<!-- 21&#45;&gt;16 -->
<g id="edge8" class="edge"><title>21&#45;&gt;16</title>
<path fill="none" stroke="#0d0d73" stroke-width="0.5" d="M1208.94,-91.93C1198.58,-80.4215 1186.26,-66.7335 1175.61,-54.8993"/>
<polygon fill="#0d0d73" stroke="#0d0d73" stroke-width="0.5" points="1176.47,-54.0298 1173.22,-52.2477 1174.65,-55.6688 1176.47,-54.0298"/>
<text text-anchor="middle" x="1214.5" y="-75" font-family="Arial" font-size="10.00" fill="#0d0d73">0.00%</text>
<text text-anchor="middle" x="1214.5" y="-64" font-family="Arial" font-size="10.00" fill="#0d0d73">224×</text>
</g>
<!-- 21&#45;&gt;17 -->
<g id="edge9" class="edge"><title>21&#45;&gt;17</title>
<path fill="none" stroke="#0d0d73" stroke-width="0.5" d="M1231.5,-91.93C1231.5,-80.7116 1231.5,-67.4223 1231.5,-55.7978"/>
<polygon fill="#0d0d73" stroke="#0d0d73" stroke-width="0.5" points="1232.73,-55.7477 1231.5,-52.2477 1230.28,-55.7478 1232.73,-55.7477"/>
<text text-anchor="middle" x="1245.5" y="-75" font-family="Arial" font-size="10.00" fill="#0d0d73">0.00%</text>
<text text-anchor="middle" x="1245.5" y="-64" font-family="Arial" font-size="10.00" fill="#0d0d73">224×</text>
</g>
<!-- 21&#45;&gt;18 -->
<g id="edge10" class="edge"><title>21&#45;&gt;18</title>
<path fill="none" stroke="#0d0d73" stroke-width="0.5" d="M1254.06,-91.93C1264.42,-80.4215 1276.74,-66.7335 1287.39,-54.8993"/>
<polygon fill="#0d0d73" stroke="#0d0d73" stroke-width="0.5" points="1288.35,-55.6688 1289.78,-52.2477 1286.53,-54.0298 1288.35,-55.6688"/>
<text text-anchor="middle" x="1295.5" y="-75" font-family="Arial" font-size="10.00" fill="#0d0d73">0.00%</text>
<text text-anchor="middle" x="1295.5" y="-64" font-family="Arial" font-size="10.00" fill="#0d0d73">224×</text>
</g>
<!-- 22 -->
<g id="node22" class="node"><title>22</title>
<polygon fill="#0d0d73" stroke="#0d0d73" points="1576,-236 1487,-236 1487,-184 1576,-184 1576,-236"/>
<text text-anchor="middle" x="1531.5" y="-224" font-family="Arial" font-size="10.00" fill="#ffffff">BitIoLdd1_ClrVal</text>
<text text-anchor="middle" x="1531.5" y="-213" font-family="Arial" font-size="10.00" fill="#ffffff">0.00%</text>
<text text-anchor="middle" x="1531.5" y="-202" font-family="Arial" font-size="10.00" fill="#ffffff">(0.00%)</text>
<text text-anchor="middle" x="1531.5" y="-191" font-family="Arial" font-size="10.00" fill="#ffffff">48×</text>
</g>
<!-- 23 -->
<g id="node23" class="node"><title>23</title>
<polygon fill="#0d0d73" stroke="#0d0d73" points="1677.5,-236 1585.5,-236 1585.5,-184 1677.5,-184 1677.5,-236"/>
<text text-anchor="middle" x="1631.5" y="-224" font-family="Arial" font-size="10.00" fill="#ffffff">BitIoLdd1_SetVal</text>
<text text-anchor="middle" x="1631.5" y="-213" font-family="Arial" font-size="10.00" fill="#ffffff">0.00%</text>
<text text-anchor="middle" x="1631.5" y="-202" font-family="Arial" font-size="10.00" fill="#ffffff">(0.00%)</text>
<text text-anchor="middle" x="1631.5" y="-191" font-family="Arial" font-size="10.00" fill="#ffffff">48×</text>
</g>
<!-- 24 -->
<g id="node24" class="node"><title>24</title>
<polygon fill="#0d0d73" stroke="#0d0d73" points="1776,-236 1687,-236 1687,-184 1776,-184 1776,-236"/>
<text text-anchor="middle" x="1731.5" y="-224" font-family="Arial" font-size="10.00" fill="#ffffff">BitIoLdd2_ClrVal</text>
<text text-anchor="middle" x="1731.5" y="-213" font-family="Arial" font-size="10.00" fill="#ffffff">0.00%</text>
<text text-anchor="middle" x="1731.5" y="-202" font-family="Arial" font-size="10.00" fill="#ffffff">(0.00%)</text>
<text text-anchor="middle" x="1731.5" y="-191" font-family="Arial" font-size="10.00" fill="#ffffff">48×</text>
</g>
<!-- 25 -->
<g id="node25" class="node"><title>25</title>
<polygon fill="#0d0d73" stroke="#0d0d73" points="1877.5,-236 1785.5,-236 1785.5,-184 1877.5,-184 1877.5,-236"/>
<text text-anchor="middle" x="1831.5" y="-224" font-family="Arial" font-size="10.00" fill="#ffffff">BitIoLdd2_SetVal</text>
<text text-anchor="middle" x="1831.5" y="-213" font-family="Arial" font-size="10.00" fill="#ffffff">0.00%</text>
<text text-anchor="middle" x="1831.5" y="-202" font-family="Arial" font-size="10.00" fill="#ffffff">(0.00%)</text>
<text text-anchor="middle" x="1831.5" y="-191" font-family="Arial" font-size="10.00" fill="#ffffff">48×</text>
</g>
<!-- 26 -->
<g id="node26" class="node"><title>26</title>
<polygon fill="#0d0d73" stroke="#0d0d73" points="1976,-236 1887,-236 1887,-184 1976,-184 1976,-236"/>
<text text-anchor="middle" x="1931.5" y="-224" font-family="Arial" font-size="10.00" fill="#ffffff">BitIoLdd3_ClrVal</text>
<text text-anchor="middle" x="1931.5" y="-213" font-family="Arial" font-size="10.00" fill="#ffffff">0.00%</text>
<text text-anchor="middle" x="1931.5" y="-202" font-family="Arial" font-size="10.00" fill="#ffffff">(0.00%)</text>
<text text-anchor="middle" x="1931.5" y="-191" font-family="Arial" font-size="10.00" fill="#ffffff">48×</text>
</g>
<!-- 27 -->
<g id="node27" class="node"><title>27</title>
<polygon fill="#0d0d73" stroke="#0d0d73" points="2077.5,-236 1985.5,-236 1985.5,-184 2077.5,-184 2077.5,-236"/>
<text text-anchor="middle" x="2031.5" y="-224" font-family="Arial" font-size="10.00" fill="#ffffff">BitIoLdd3_SetVal</text>
<text text-anchor="middle" x="2031.5" y="-213" font-family="Arial" font-size="10.00" fill="#ffffff">0.00%</text>
<text text-anchor="middle" x="2031.5" y="-202" font-family="Arial" font-size="10.00" fill="#ffffff">(0.00%)</text>
<text text-anchor="middle" x="2031.5" y="-191" font-family="Arial" font-size="10.00" fill="#ffffff">48×</text>
</g>
<!-- 28 -->
<g id="node28" class="node"><title>28</title>
<polygon fill="#0d0d73" stroke="#0d0d73" points="2188,-236 2087,-236 2087,-184 2188,-184 2188,-236"/>
<text text-anchor="middle" x="2137.5" y="-224" font-family="Arial" font-size="10.00" fill="#ffffff">AD1_MeasureChan</text>
<text text-anchor="middle" x="2137.5" y="-213" font-family="Arial" font-size="10.00" fill="#ffffff">0.00%</text>
<text text-anchor="middle" x="2137.5" y="-202" font-family="Arial" font-size="10.00" fill="#ffffff">(0.00%)</text>
<text text-anchor="middle" x="2137.5" y="-191" font-family="Arial" font-size="10.00" fill="#ffffff">20×</text>
</g>
<!-- 29 -->
<g id="node29" class="node"><title>29</title>
<polygon fill="#0d0d73" stroke="#0d0d73" points="2345.5,-236 2197.5,-236 2197.5,-184 2345.5,-184 2345.5,-236"/>
<text text-anchor="middle" x="2271.5" y="-224" font-family="Arial" font-size="10.00" fill="#ffffff">AdcLdd1_CreateSampleGroup</text>
<text text-anchor="middle" x="2271.5" y="-213" font-family="Arial" font-size="10.00" fill="#ffffff">0.00%</text>
<text text-anchor="middle" x="2271.5" y="-202" font-family="Arial" font-size="10.00" fill="#ffffff">(0.00%)</text>
<text text-anchor="middle" x="2271.5" y="-191" font-family="Arial" font-size="10.00" fill="#ffffff">20×</text>
</g>
<!-- 30 -->
<g id="node30" class="node"><title>30</title>
<polygon fill="#0d0d73" stroke="#0d0d73" points="2504,-236 2355,-236 2355,-184 2504,-184 2504,-236"/>
<text text-anchor="middle" x="2429.5" y="-224" font-family="Arial" font-size="10.00" fill="#ffffff">AdcLdd1_GetMeasuredValues</text>
<text text-anchor="middle" x="2429.5" y="-213" font-family="Arial" font-size="10.00" fill="#ffffff">0.00%</text>
<text text-anchor="middle" x="2429.5" y="-202" font-family="Arial" font-size="10.00" fill="#ffffff">(0.00%)</text>
<text text-anchor="middle" x="2429.5" y="-191" font-family="Arial" font-size="10.00" fill="#ffffff">20×</text>
</g>
<!-- 31 -->
<g id="node31" class="node"><title>31</title>
<polygon fill="#0d0d73" stroke="#0d0d73" points="2718,-236 2513,-236 2513,-184 2718,-184 2718,-236"/>
<text text-anchor="middle" x="2615.5" y="-224" font-family="Arial" font-size="10.00" fill="#ffffff">AdcLdd1_GetMeasurementCompleteStatus</text>
<text text-anchor="middle" x="2615.5" y="-213" font-family="Arial" font-size="10.00" fill="#ffffff">0.00%</text>
<text text-anchor="middle" x="2615.5" y="-202" font-family="Arial" font-size="10.00" fill="#ffffff">(0.00%)</text>
<text text-anchor="middle" x="2615.5" y="-191" font-family="Arial" font-size="10.00" fill="#ffffff">20×</text>
</g>
<!-- 32 -->
<g id="node32" class="node"><title>32</title>
<polygon fill="#0d0d73" stroke="#0d0d73" points="2894,-236 2727,-236 2727,-184 2894,-184 2894,-236"/>
<text text-anchor="middle" x="2810.5" y="-224" font-family="Arial" font-size="10.00" fill="#ffffff">AdcLdd1_StartSingleMeasurement</text>
<text text-anchor="middle" x="2810.5" y="-213" font-family="Arial" font-size="10.00" fill="#ffffff">0.00%</text>
<text text-anchor="middle" x="2810.5" y="-202" font-family="Arial" font-size="10.00" fill="#ffffff">(0.00%)</text>
<text text-anchor="middle" x="2810.5" y="-191" font-family="Arial" font-size="10.00" fill="#ffffff">20×</text>
</g>
<!-- 33 -->
<g id="node33" class="node"><title>33</title>
<polygon fill="#0d0d73" stroke="#0d0d73" points="1212,-236 1117,-236 1117,-184 1212,-184 1212,-236"/>
<text text-anchor="middle" x="1164.5" y="-224" font-family="Arial" font-size="10.00" fill="#ffffff">Read_Accel_Task</text>
<text text-anchor="middle" x="1164.5" y="-213" font-family="Arial" font-size="10.00" fill="#ffffff">0.00%</text>
<text text-anchor="middle" x="1164.5" y="-202" font-family="Arial" font-size="10.00" fill="#ffffff">(0.00%)</text>
<text text-anchor="middle" x="1164.5" y="-191" font-family="Arial" font-size="10.00" fill="#ffffff">1×</text>
</g>
<!-- 33&#45;&gt;14 -->
<g id="edge11" class="edge"><title>33&#45;&gt;14</title>
<path fill="none" stroke="#0d0d73" stroke-width="0.5" d="M1154.19,-183.93C1149.54,-172.615 1144.02,-159.193 1139.22,-147.497"/>
<polygon fill="#0d0d73" stroke="#0d0d73" stroke-width="0.5" points="1140.34,-147.019 1137.88,-144.248 1138.08,-147.951 1140.34,-147.019"/>
<text text-anchor="middle" x="1163.5" y="-167" font-family="Arial" font-size="10.00" fill="#0d0d73">0.00%</text>
<text text-anchor="middle" x="1163.5" y="-156" font-family="Arial" font-size="10.00" fill="#0d0d73">448×</text>
</g>
<!-- 33&#45;&gt;21 -->
<g id="edge12" class="edge"><title>33&#45;&gt;21</title>
<path fill="none" stroke="#0d0d73" stroke-width="0.5" d="M1183.16,-183.93C1191.66,-172.518 1201.75,-158.963 1210.51,-147.198"/>
<polygon fill="#0d0d73" stroke="#0d0d73" stroke-width="0.5" points="1211.6,-147.787 1212.7,-144.248 1209.63,-146.324 1211.6,-147.787"/>
<text text-anchor="middle" x="1219.5" y="-167" font-family="Arial" font-size="10.00" fill="#0d0d73">0.00%</text>
<text text-anchor="middle" x="1219.5" y="-156" font-family="Arial" font-size="10.00" fill="#0d0d73">223×</text>
</g>
</g>
</svg>
