<?xml version="1.0" encoding="UTF-8" standalone="no"?>
<!DOCTYPE svg PUBLIC "-//W3C//DTD SVG 1.1//EN"
 "http://www.w3.org/Graphics/SVG/1.1/DTD/svg11.dtd">
<!-- Generated by graphviz version 2.38.0 (20140413.2041)
 -->
<!-- Title: %3 Pages: 1 -->
<svg width="3095pt" height="244pt"
 viewBox="0.00 0.00 3094.50 244.00" xmlns="http://www.w3.org/2000/svg" xmlns:xlink="http://www.w3.org/1999/xlink">
<g id="graph0" class="graph" transform="scale(1 1) rotate(0) translate(4 240)">
<title>%3</title>
<polygon fill="white" stroke="none" points="-4,4 -4,-240 3090.5,-240 3090.5,4 -4,4"/>
<!-- 1 -->
<g id="node1" class="node"><title>1</title>
<polygon fill="#42c108" stroke="#42c108" points="91,-230.5 0,-230.5 0,-189.5 91,-189.5 91,-230.5"/>
<text text-anchor="middle" x="45.5" y="-218.5" font-family="Arial" font-size="10.00" fill="#ffffff">_mcount_internal</text>
<text text-anchor="middle" x="45.5" y="-207.5" font-family="Arial" font-size="10.00" fill="#ffffff">57.77%</text>
<text text-anchor="middle" x="45.5" y="-196.5" font-family="Arial" font-size="10.00" fill="#ffffff">(57.77%)</text>
</g>
<!-- 2 -->
<g id="node2" class="node"><title>2</title>
<polygon fill="#0ba069" stroke="#0ba069" points="198.5,-230.5 100.5,-230.5 100.5,-189.5 198.5,-189.5 198.5,-230.5"/>
<text text-anchor="middle" x="149.5" y="-218.5" font-family="Arial" font-size="10.00" fill="#ffffff">vPortYieldFromISR</text>
<text text-anchor="middle" x="149.5" y="-207.5" font-family="Arial" font-size="10.00" fill="#ffffff">34.31%</text>
<text text-anchor="middle" x="149.5" y="-196.5" font-family="Arial" font-size="10.00" fill="#ffffff">(34.31%)</text>
</g>
<!-- 3 -->
<g id="node3" class="node"><title>3</title>
<polygon fill="#0d1b77" stroke="#0d1b77" points="434,-144 329,-144 329,-92 434,-92 434,-144"/>
<text text-anchor="middle" x="381.5" y="-132" font-family="Arial" font-size="10.00" fill="#ffffff">LCD_Text_PrintChar</text>
<text text-anchor="middle" x="381.5" y="-121" font-family="Arial" font-size="10.00" fill="#ffffff">3.25%</text>
<text text-anchor="middle" x="381.5" y="-110" font-family="Arial" font-size="10.00" fill="#ffffff">(1.73%)</text>
<text text-anchor="middle" x="381.5" y="-99" font-family="Arial" font-size="10.00" fill="#ffffff">22174×</text>
</g>
<!-- 6 -->
<g id="node4" class="node"><title>6</title>
<polygon fill="#0d1375" stroke="#0d1375" points="388.5,-52 248.5,-52 248.5,-0 388.5,-0 388.5,-52"/>
<text text-anchor="middle" x="318.5" y="-40" font-family="Arial" font-size="10.00" fill="#ffffff">LCD_Write_Rectangle_Pixel</text>
<text text-anchor="middle" x="318.5" y="-29" font-family="Arial" font-size="10.00" fill="#ffffff">1.52%</text>
<text text-anchor="middle" x="318.5" y="-18" font-family="Arial" font-size="10.00" fill="#ffffff">(1.52%)</text>
<text text-anchor="middle" x="318.5" y="-7" font-family="Arial" font-size="10.00" fill="#ffffff">2192405×</text>
</g>
<!-- 3&#45;&gt;6 -->
<g id="edge1" class="edge"><title>3&#45;&gt;6</title>
<path fill="none" stroke="#0d1375" stroke-width="0.5" d="M351.693,-91.6466C349.111,-88.8608 346.662,-85.9581 344.5,-83 338.416,-74.676 333.234,-64.7013 329.134,-55.4917"/>
<polygon fill="#0d1375" stroke="#0d1375" stroke-width="0.5" points="330.194,-54.8572 327.673,-52.1377 327.948,-55.8357 330.194,-54.8572"/>
<text text-anchor="middle" x="366" y="-75" font-family="Arial" font-size="10.00" fill="#0d1375">1.52%</text>
<text text-anchor="middle" x="366" y="-64" font-family="Arial" font-size="10.00" fill="#0d1375">2192405×</text>
</g>
<!-- 12 -->
<g id="node5" class="node"><title>12</title>
<polygon fill="#0d0d73" stroke="#0d0d73" points="507.5,-52 397.5,-52 397.5,-0 507.5,-0 507.5,-52"/>
<text text-anchor="middle" x="452.5" y="-40" font-family="Arial" font-size="10.00" fill="#ffffff">LCD_Start_Rectangle</text>
<text text-anchor="middle" x="452.5" y="-29" font-family="Arial" font-size="10.00" fill="#ffffff">0.00%</text>
<text text-anchor="middle" x="452.5" y="-18" font-family="Arial" font-size="10.00" fill="#ffffff">(0.00%)</text>
<text text-anchor="middle" x="452.5" y="-7" font-family="Arial" font-size="10.00" fill="#ffffff">22175×</text>
</g>
<!-- 3&#45;&gt;12 -->
<g id="edge2" class="edge"><title>3&#45;&gt;12</title>
<path fill="none" stroke="#0d0d73" stroke-width="0.5" d="M395.932,-91.8994C402.096,-81.9259 409.67,-70.5724 417.5,-61 419.196,-58.9263 421.008,-56.8461 422.88,-54.7926"/>
<polygon fill="#0d0d73" stroke="#0d0d73" stroke-width="0.5" points="423.979,-55.4095 425.465,-52.0121 422.184,-53.7412 423.979,-55.4095"/>
<text text-anchor="middle" x="431.5" y="-75" font-family="Arial" font-size="10.00" fill="#0d0d73">0.00%</text>
<text text-anchor="middle" x="431.5" y="-64" font-family="Arial" font-size="10.00" fill="#0d0d73">1×</text>
</g>
<!-- 4 -->
<g id="node6" class="node"><title>4</title>
<polygon fill="#0d1776" stroke="#0d1776" points="538,-230.5 441,-230.5 441,-189.5 538,-189.5 538,-230.5"/>
<text text-anchor="middle" x="489.5" y="-218.5" font-family="Arial" font-size="10.00" fill="#ffffff">Refill_Sound_Task</text>
<text text-anchor="middle" x="489.5" y="-207.5" font-family="Arial" font-size="10.00" fill="#ffffff">2.44%</text>
<text text-anchor="middle" x="489.5" y="-196.5" font-family="Arial" font-size="10.00" fill="#ffffff">(2.44%)</text>
</g>
<!-- 5 -->
<g id="node7" class="node"><title>5</title>
<polygon fill="#0d1575" stroke="#0d1575" points="325,-230.5 208,-230.5 208,-189.5 325,-189.5 325,-230.5"/>
<text text-anchor="middle" x="266.5" y="-218.5" font-family="Arial" font-size="10.00" fill="#ffffff">DacLdd1_DMA0_ChInit</text>
<text text-anchor="middle" x="266.5" y="-207.5" font-family="Arial" font-size="10.00" fill="#ffffff">1.86%</text>
<text text-anchor="middle" x="266.5" y="-196.5" font-family="Arial" font-size="10.00" fill="#ffffff">(0.00%)</text>
</g>
<!-- 5&#45;&gt;3 -->
<g id="edge3" class="edge"><title>5&#45;&gt;3</title>
<path fill="none" stroke="#0d1575" stroke-width="0.5" d="M278.02,-189.271C286.913,-174.271 298.234,-155.752 301.5,-153 309.578,-146.192 313.76,-148.091 323.5,-144 324.144,-143.729 324.793,-143.457 325.444,-143.182"/>
<polygon fill="#0d1575" stroke="#0d1575" stroke-width="0.5" points="325.979,-144.286 328.727,-141.796 325.026,-142.029 325.979,-144.286"/>
<text text-anchor="middle" x="318" y="-167" font-family="Arial" font-size="10.00" fill="#0d1575">1.86%</text>
<text text-anchor="middle" x="318" y="-156" font-family="Arial" font-size="10.00" fill="#0d1575">12712×</text>
</g>
<!-- 20 -->
<g id="node8" class="node"><title>20</title>
<polygon fill="#0d0d73" stroke="#0d0d73" points="319.5,-144 193.5,-144 193.5,-92 319.5,-92 319.5,-144"/>
<text text-anchor="middle" x="256.5" y="-132" font-family="Arial" font-size="10.00" fill="#ffffff">convert_xyz_to_roll_pitch</text>
<text text-anchor="middle" x="256.5" y="-121" font-family="Arial" font-size="10.00" fill="#ffffff">0.00%</text>
<text text-anchor="middle" x="256.5" y="-110" font-family="Arial" font-size="10.00" fill="#ffffff">(0.00%)</text>
<text text-anchor="middle" x="256.5" y="-99" font-family="Arial" font-size="10.00" fill="#ffffff">859×</text>
</g>
<!-- 5&#45;&gt;20 -->
<g id="edge4" class="edge"><title>5&#45;&gt;20</title>
<path fill="none" stroke="#0d0d73" stroke-width="0.5" d="M261.926,-189.308C260.986,-184.64 260.101,-179.662 259.5,-175 258.367,-166.213 257.66,-156.597 257.22,-147.851"/>
<polygon fill="#0d0d73" stroke="#0d0d73" stroke-width="0.5" points="258.434,-147.601 257.047,-144.162 255.987,-147.715 258.434,-147.601"/>
<text text-anchor="middle" x="273.5" y="-167" font-family="Arial" font-size="10.00" fill="#0d0d73">0.00%</text>
<text text-anchor="middle" x="273.5" y="-156" font-family="Arial" font-size="10.00" fill="#0d0d73">455×</text>
</g>
<!-- 7 -->
<g id="node9" class="node"><title>7</title>
<polygon fill="#0d1375" stroke="#0d1375" points="432,-230.5 343,-230.5 343,-189.5 432,-189.5 432,-230.5"/>
<text text-anchor="middle" x="387.5" y="-218.5" font-family="Arial" font-size="10.00" fill="#ffffff">CmdParserTable</text>
<text text-anchor="middle" x="387.5" y="-207.5" font-family="Arial" font-size="10.00" fill="#ffffff">1.39%</text>
<text text-anchor="middle" x="387.5" y="-196.5" font-family="Arial" font-size="10.00" fill="#ffffff">(0.00%)</text>
</g>
<!-- 7&#45;&gt;3 -->
<g id="edge5" class="edge"><title>7&#45;&gt;3</title>
<path fill="none" stroke="#0d1375" stroke-width="0.5" d="M386.198,-189.471C385.392,-177.374 384.341,-161.614 383.438,-148.067"/>
<polygon fill="#0d1375" stroke="#0d1375" stroke-width="0.5" points="384.642,-147.72 383.187,-144.31 382.198,-147.883 384.642,-147.72"/>
<text text-anchor="middle" x="399.5" y="-167" font-family="Arial" font-size="10.00" fill="#0d1375">1.39%</text>
<text text-anchor="middle" x="399.5" y="-156" font-family="Arial" font-size="10.00" fill="#0d1375">9462×</text>
</g>
<!-- 7&#45;&gt;12 -->
<g id="edge6" class="edge"><title>7&#45;&gt;12</title>
<path fill="none" stroke="#0d0d73" stroke-width="0.5" d="M407.909,-189.294C418.962,-177.309 431.712,-161.059 438.5,-144 449.89,-115.375 452.724,-79.9406 453.127,-55.6134"/>
<polygon fill="#0d0d73" stroke="#0d0d73" stroke-width="0.5" points="454.352,-55.6215 453.17,-52.1068 451.902,-55.5917 454.352,-55.6215"/>
<text text-anchor="middle" x="468" y="-121" font-family="Arial" font-size="10.00" fill="#0d0d73">0.00%</text>
<text text-anchor="middle" x="468" y="-110" font-family="Arial" font-size="10.00" fill="#0d0d73">22174×</text>
</g>
<!-- 7&#45;&gt;20 -->
<g id="edge7" class="edge"><title>7&#45;&gt;20</title>
<path fill="none" stroke="#0d0d73" stroke-width="0.5" d="M368.474,-189.46C353.007,-173.601 333.57,-153.744 332.5,-153 328.977,-150.55 325.248,-148.212 321.41,-145.991"/>
<polygon fill="#0d0d73" stroke="#0d0d73" stroke-width="0.5" points="321.812,-144.811 318.162,-144.154 320.606,-146.943 321.812,-144.811"/>
<text text-anchor="middle" x="368.5" y="-167" font-family="Arial" font-size="10.00" fill="#0d0d73">0.00%</text>
<text text-anchor="middle" x="368.5" y="-156" font-family="Arial" font-size="10.00" fill="#0d0d73">404×</text>
</g>
<!-- 8 -->
<g id="node10" class="node"><title>8</title>
<polygon fill="#0d1174" stroke="#0d1174" points="700,-230.5 547,-230.5 547,-189.5 700,-189.5 700,-230.5"/>
<text text-anchor="middle" x="623.5" y="-218.5" font-family="Arial" font-size="10.00" fill="#ffffff">Sound_Generate_Next_Sample</text>
<text text-anchor="middle" x="623.5" y="-207.5" font-family="Arial" font-size="10.00" fill="#ffffff">0.91%</text>
<text text-anchor="middle" x="623.5" y="-196.5" font-family="Arial" font-size="10.00" fill="#ffffff">(0.91%)</text>
</g>
<!-- 9 -->
<g id="node11" class="node"><title>9</title>
<polygon fill="#0d1074" stroke="#0d1074" points="816,-230.5 709,-230.5 709,-189.5 816,-189.5 816,-230.5"/>
<text text-anchor="middle" x="762.5" y="-218.5" font-family="Arial" font-size="10.00" fill="#ffffff">GI2C1_ReadAddress</text>
<text text-anchor="middle" x="762.5" y="-207.5" font-family="Arial" font-size="10.00" fill="#ffffff">0.81%</text>
<text text-anchor="middle" x="762.5" y="-196.5" font-family="Arial" font-size="10.00" fill="#ffffff">(0.81%)</text>
</g>
<!-- 10 -->
<g id="node12" class="node"><title>10</title>
<polygon fill="#0d0e73" stroke="#0d0e73" points="921.5,-230.5 825.5,-230.5 825.5,-189.5 921.5,-189.5 921.5,-230.5"/>
<text text-anchor="middle" x="873.5" y="-218.5" font-family="Arial" font-size="10.00" fill="#ffffff">__gnu_mcount_nc</text>
<text text-anchor="middle" x="873.5" y="-207.5" font-family="Arial" font-size="10.00" fill="#ffffff">0.41%</text>
<text text-anchor="middle" x="873.5" y="-196.5" font-family="Arial" font-size="10.00" fill="#ffffff">(0.41%)</text>
</g>
<!-- 11 -->
<g id="node13" class="node"><title>11</title>
<polygon fill="#0d0d73" stroke="#0d0d73" points="996,-230.5 931,-230.5 931,-189.5 996,-189.5 996,-230.5"/>
<text text-anchor="middle" x="963.5" y="-218.5" font-family="Arial" font-size="10.00" fill="#ffffff">prvIdleTask</text>
<text text-anchor="middle" x="963.5" y="-207.5" font-family="Arial" font-size="10.00" fill="#ffffff">0.10%</text>
<text text-anchor="middle" x="963.5" y="-196.5" font-family="Arial" font-size="10.00" fill="#ffffff">(0.10%)</text>
</g>
<!-- 13 -->
<g id="node14" class="node"><title>13</title>
<polygon fill="#0d0d73" stroke="#0d0d73" points="1089.5,-236 1005.5,-236 1005.5,-184 1089.5,-184 1089.5,-236"/>
<text text-anchor="middle" x="1047.5" y="-224" font-family="Arial" font-size="10.00" fill="#ffffff">CLS1_GetStdio</text>
<text text-anchor="middle" x="1047.5" y="-213" font-family="Arial" font-size="10.00" fill="#ffffff">0.00%</text>
<text text-anchor="middle" x="1047.5" y="-202" font-family="Arial" font-size="10.00" fill="#ffffff">(0.00%)</text>
<text text-anchor="middle" x="1047.5" y="-191" font-family="Arial" font-size="10.00" fill="#ffffff">2577×</text>
</g>
<!-- 14 -->
<g id="node15" class="node"><title>14</title>
<polygon fill="#0d0d73" stroke="#0d0d73" points="1198,-236 1099,-236 1099,-184 1198,-184 1198,-236"/>
<text text-anchor="middle" x="1148.5" y="-224" font-family="Arial" font-size="10.00" fill="#ffffff">CLS1_KeyPressed</text>
<text text-anchor="middle" x="1148.5" y="-213" font-family="Arial" font-size="10.00" fill="#ffffff">0.00%</text>
<text text-anchor="middle" x="1148.5" y="-202" font-family="Arial" font-size="10.00" fill="#ffffff">(0.00%)</text>
<text text-anchor="middle" x="1148.5" y="-191" font-family="Arial" font-size="10.00" fill="#ffffff">1718×</text>
</g>
<!-- 15 -->
<g id="node16" class="node"><title>15</title>
<polygon fill="#0d0d73" stroke="#0d0d73" points="1323.5,-236 1207.5,-236 1207.5,-184 1323.5,-184 1323.5,-236"/>
<text text-anchor="middle" x="1265.5" y="-224" font-family="Arial" font-size="10.00" fill="#ffffff">LCD_Text_PrintStr_RC</text>
<text text-anchor="middle" x="1265.5" y="-213" font-family="Arial" font-size="10.00" fill="#ffffff">0.00%</text>
<text text-anchor="middle" x="1265.5" y="-202" font-family="Arial" font-size="10.00" fill="#ffffff">(0.00%)</text>
<text text-anchor="middle" x="1265.5" y="-191" font-family="Arial" font-size="10.00" fill="#ffffff">1718×</text>
</g>
<!-- 16 -->
<g id="node17" class="node"><title>16</title>
<polygon fill="#0d0d73" stroke="#0d0d73" points="1324,-144 1253,-144 1253,-92 1324,-92 1324,-144"/>
<text text-anchor="middle" x="1288.5" y="-132" font-family="Arial" font-size="10.00" fill="#ffffff">MMA1_GetX</text>
<text text-anchor="middle" x="1288.5" y="-121" font-family="Arial" font-size="10.00" fill="#ffffff">0.00%</text>
<text text-anchor="middle" x="1288.5" y="-110" font-family="Arial" font-size="10.00" fill="#ffffff">(0.00%)</text>
<text text-anchor="middle" x="1288.5" y="-99" font-family="Arial" font-size="10.00" fill="#ffffff">859×</text>
</g>
<!-- 17 -->
<g id="node18" class="node"><title>17</title>
<polygon fill="#0d0d73" stroke="#0d0d73" points="1406,-144 1333,-144 1333,-92 1406,-92 1406,-144"/>
<text text-anchor="middle" x="1369.5" y="-132" font-family="Arial" font-size="10.00" fill="#ffffff">MMA1_GetY</text>
<text text-anchor="middle" x="1369.5" y="-121" font-family="Arial" font-size="10.00" fill="#ffffff">0.00%</text>
<text text-anchor="middle" x="1369.5" y="-110" font-family="Arial" font-size="10.00" fill="#ffffff">(0.00%)</text>
<text text-anchor="middle" x="1369.5" y="-99" font-family="Arial" font-size="10.00" fill="#ffffff">859×</text>
</g>
<!-- 18 -->
<g id="node19" class="node"><title>18</title>
<polygon fill="#0d0d73" stroke="#0d0d73" points="1486,-144 1415,-144 1415,-92 1486,-92 1486,-144"/>
<text text-anchor="middle" x="1450.5" y="-132" font-family="Arial" font-size="10.00" fill="#ffffff">MMA1_GetZ</text>
<text text-anchor="middle" x="1450.5" y="-121" font-family="Arial" font-size="10.00" fill="#ffffff">0.00%</text>
<text text-anchor="middle" x="1450.5" y="-110" font-family="Arial" font-size="10.00" fill="#ffffff">(0.00%)</text>
<text text-anchor="middle" x="1450.5" y="-99" font-family="Arial" font-size="10.00" fill="#ffffff">859×</text>
</g>
<!-- 19 -->
<g id="node20" class="node"><title>19</title>
<polygon fill="#0d0d73" stroke="#0d0d73" points="1565,-236 1416,-236 1416,-184 1565,-184 1565,-236"/>
<text text-anchor="middle" x="1490.5" y="-224" font-family="Arial" font-size="10.00" fill="#ffffff">UTIL1_ScanDecimal8uNumber</text>
<text text-anchor="middle" x="1490.5" y="-213" font-family="Arial" font-size="10.00" fill="#ffffff">0.00%</text>
<text text-anchor="middle" x="1490.5" y="-202" font-family="Arial" font-size="10.00" fill="#ffffff">(0.00%)</text>
<text text-anchor="middle" x="1490.5" y="-191" font-family="Arial" font-size="10.00" fill="#ffffff">859×</text>
</g>
<!-- 21 -->
<g id="node21" class="node"><title>21</title>
<polygon fill="#0d0d73" stroke="#0d0d73" points="1406.5,-236 1332.5,-236 1332.5,-184 1406.5,-184 1406.5,-236"/>
<text text-anchor="middle" x="1369.5" y="-224" font-family="Arial" font-size="10.00" fill="#ffffff">read_full_xyz</text>
<text text-anchor="middle" x="1369.5" y="-213" font-family="Arial" font-size="10.00" fill="#ffffff">0.00%</text>
<text text-anchor="middle" x="1369.5" y="-202" font-family="Arial" font-size="10.00" fill="#ffffff">(0.00%)</text>
<text text-anchor="middle" x="1369.5" y="-191" font-family="Arial" font-size="10.00" fill="#ffffff">859×</text>
</g>
<!-- 21&#45;&gt;16 -->
<g id="edge8" class="edge"><title>21&#45;&gt;16</title>
<path fill="none" stroke="#0d0d73" stroke-width="0.5" d="M1346.94,-183.93C1336.58,-172.421 1324.26,-158.734 1313.61,-146.899"/>
<polygon fill="#0d0d73" stroke="#0d0d73" stroke-width="0.5" points="1314.47,-146.03 1311.22,-144.248 1312.65,-147.669 1314.47,-146.03"/>
<text text-anchor="middle" x="1352.5" y="-167" font-family="Arial" font-size="10.00" fill="#0d0d73">0.00%</text>
<text text-anchor="middle" x="1352.5" y="-156" font-family="Arial" font-size="10.00" fill="#0d0d73">859×</text>
</g>
<!-- 21&#45;&gt;17 -->
<g id="edge9" class="edge"><title>21&#45;&gt;17</title>
<path fill="none" stroke="#0d0d73" stroke-width="0.5" d="M1369.5,-183.93C1369.5,-172.712 1369.5,-159.422 1369.5,-147.798"/>
<polygon fill="#0d0d73" stroke="#0d0d73" stroke-width="0.5" points="1370.73,-147.748 1369.5,-144.248 1368.28,-147.748 1370.73,-147.748"/>
<text text-anchor="middle" x="1383.5" y="-167" font-family="Arial" font-size="10.00" fill="#0d0d73">0.00%</text>
<text text-anchor="middle" x="1383.5" y="-156" font-family="Arial" font-size="10.00" fill="#0d0d73">859×</text>
</g>
<!-- 21&#45;&gt;18 -->
<g id="edge10" class="edge"><title>21&#45;&gt;18</title>
<path fill="none" stroke="#0d0d73" stroke-width="0.5" d="M1392.06,-183.93C1402.42,-172.421 1414.74,-158.734 1425.39,-146.899"/>
<polygon fill="#0d0d73" stroke="#0d0d73" stroke-width="0.5" points="1426.35,-147.669 1427.78,-144.248 1424.53,-146.03 1426.35,-147.669"/>
<text text-anchor="middle" x="1433.5" y="-167" font-family="Arial" font-size="10.00" fill="#0d0d73">0.00%</text>
<text text-anchor="middle" x="1433.5" y="-156" font-family="Arial" font-size="10.00" fill="#0d0d73">859×</text>
</g>
<!-- 22 -->
<g id="node22" class="node"><title>22</title>
<polygon fill="#0d0d73" stroke="#0d0d73" points="1663,-236 1574,-236 1574,-184 1663,-184 1663,-236"/>
<text text-anchor="middle" x="1618.5" y="-224" font-family="Arial" font-size="10.00" fill="#ffffff">BitIoLdd1_ClrVal</text>
<text text-anchor="middle" x="1618.5" y="-213" font-family="Arial" font-size="10.00" fill="#ffffff">0.00%</text>
<text text-anchor="middle" x="1618.5" y="-202" font-family="Arial" font-size="10.00" fill="#ffffff">(0.00%)</text>
<text text-anchor="middle" x="1618.5" y="-191" font-family="Arial" font-size="10.00" fill="#ffffff">184×</text>
</g>
<!-- 23 -->
<g id="node23" class="node"><title>23</title>
<polygon fill="#0d0d73" stroke="#0d0d73" points="1764.5,-236 1672.5,-236 1672.5,-184 1764.5,-184 1764.5,-236"/>
<text text-anchor="middle" x="1718.5" y="-224" font-family="Arial" font-size="10.00" fill="#ffffff">BitIoLdd2_SetVal</text>
<text text-anchor="middle" x="1718.5" y="-213" font-family="Arial" font-size="10.00" fill="#ffffff">0.00%</text>
<text text-anchor="middle" x="1718.5" y="-202" font-family="Arial" font-size="10.00" fill="#ffffff">(0.00%)</text>
<text text-anchor="middle" x="1718.5" y="-191" font-family="Arial" font-size="10.00" fill="#ffffff">184×</text>
</g>
<!-- 24 -->
<g id="node24" class="node"><title>24</title>
<polygon fill="#0d0d73" stroke="#0d0d73" points="1863,-236 1774,-236 1774,-184 1863,-184 1863,-236"/>
<text text-anchor="middle" x="1818.5" y="-224" font-family="Arial" font-size="10.00" fill="#ffffff">BitIoLdd3_ClrVal</text>
<text text-anchor="middle" x="1818.5" y="-213" font-family="Arial" font-size="10.00" fill="#ffffff">0.00%</text>
<text text-anchor="middle" x="1818.5" y="-202" font-family="Arial" font-size="10.00" fill="#ffffff">(0.00%)</text>
<text text-anchor="middle" x="1818.5" y="-191" font-family="Arial" font-size="10.00" fill="#ffffff">184×</text>
</g>
<!-- 25 -->
<g id="node25" class="node"><title>25</title>
<polygon fill="#0d0d73" stroke="#0d0d73" points="1964.5,-236 1872.5,-236 1872.5,-184 1964.5,-184 1964.5,-236"/>
<text text-anchor="middle" x="1918.5" y="-224" font-family="Arial" font-size="10.00" fill="#ffffff">BitIoLdd1_SetVal</text>
<text text-anchor="middle" x="1918.5" y="-213" font-family="Arial" font-size="10.00" fill="#ffffff">0.00%</text>
<text text-anchor="middle" x="1918.5" y="-202" font-family="Arial" font-size="10.00" fill="#ffffff">(0.00%)</text>
<text text-anchor="middle" x="1918.5" y="-191" font-family="Arial" font-size="10.00" fill="#ffffff">183×</text>
</g>
<!-- 26 -->
<g id="node26" class="node"><title>26</title>
<polygon fill="#0d0d73" stroke="#0d0d73" points="2063,-236 1974,-236 1974,-184 2063,-184 2063,-236"/>
<text text-anchor="middle" x="2018.5" y="-224" font-family="Arial" font-size="10.00" fill="#ffffff">BitIoLdd2_ClrVal</text>
<text text-anchor="middle" x="2018.5" y="-213" font-family="Arial" font-size="10.00" fill="#ffffff">0.00%</text>
<text text-anchor="middle" x="2018.5" y="-202" font-family="Arial" font-size="10.00" fill="#ffffff">(0.00%)</text>
<text text-anchor="middle" x="2018.5" y="-191" font-family="Arial" font-size="10.00" fill="#ffffff">183×</text>
</g>
<!-- 27 -->
<g id="node27" class="node"><title>27</title>
<polygon fill="#0d0d73" stroke="#0d0d73" points="2164.5,-236 2072.5,-236 2072.5,-184 2164.5,-184 2164.5,-236"/>
<text text-anchor="middle" x="2118.5" y="-224" font-family="Arial" font-size="10.00" fill="#ffffff">BitIoLdd3_SetVal</text>
<text text-anchor="middle" x="2118.5" y="-213" font-family="Arial" font-size="10.00" fill="#ffffff">0.00%</text>
<text text-anchor="middle" x="2118.5" y="-202" font-family="Arial" font-size="10.00" fill="#ffffff">(0.00%)</text>
<text text-anchor="middle" x="2118.5" y="-191" font-family="Arial" font-size="10.00" fill="#ffffff">183×</text>
</g>
<!-- 28 -->
<g id="node28" class="node"><title>28</title>
<polygon fill="#0d0d73" stroke="#0d0d73" points="2275,-236 2174,-236 2174,-184 2275,-184 2275,-236"/>
<text text-anchor="middle" x="2224.5" y="-224" font-family="Arial" font-size="10.00" fill="#ffffff">AD1_MeasureChan</text>
<text text-anchor="middle" x="2224.5" y="-213" font-family="Arial" font-size="10.00" fill="#ffffff">0.00%</text>
<text text-anchor="middle" x="2224.5" y="-202" font-family="Arial" font-size="10.00" fill="#ffffff">(0.00%)</text>
<text text-anchor="middle" x="2224.5" y="-191" font-family="Arial" font-size="10.00" fill="#ffffff">2×</text>
</g>
<!-- 29 -->
<g id="node29" class="node"><title>29</title>
<polygon fill="#0d0d73" stroke="#0d0d73" points="2432.5,-236 2284.5,-236 2284.5,-184 2432.5,-184 2432.5,-236"/>
<text text-anchor="middle" x="2358.5" y="-224" font-family="Arial" font-size="10.00" fill="#ffffff">AdcLdd1_CreateSampleGroup</text>
<text text-anchor="middle" x="2358.5" y="-213" font-family="Arial" font-size="10.00" fill="#ffffff">0.00%</text>
<text text-anchor="middle" x="2358.5" y="-202" font-family="Arial" font-size="10.00" fill="#ffffff">(0.00%)</text>
<text text-anchor="middle" x="2358.5" y="-191" font-family="Arial" font-size="10.00" fill="#ffffff">2×</text>
</g>
<!-- 30 -->
<g id="node30" class="node"><title>30</title>
<polygon fill="#0d0d73" stroke="#0d0d73" points="2591,-236 2442,-236 2442,-184 2591,-184 2591,-236"/>
<text text-anchor="middle" x="2516.5" y="-224" font-family="Arial" font-size="10.00" fill="#ffffff">AdcLdd1_GetMeasuredValues</text>
<text text-anchor="middle" x="2516.5" y="-213" font-family="Arial" font-size="10.00" fill="#ffffff">0.00%</text>
<text text-anchor="middle" x="2516.5" y="-202" font-family="Arial" font-size="10.00" fill="#ffffff">(0.00%)</text>
<text text-anchor="middle" x="2516.5" y="-191" font-family="Arial" font-size="10.00" fill="#ffffff">2×</text>
</g>
<!-- 31 -->
<g id="node31" class="node"><title>31</title>
<polygon fill="#0d0d73" stroke="#0d0d73" points="2805,-236 2600,-236 2600,-184 2805,-184 2805,-236"/>
<text text-anchor="middle" x="2702.5" y="-224" font-family="Arial" font-size="10.00" fill="#ffffff">AdcLdd1_GetMeasurementCompleteStatus</text>
<text text-anchor="middle" x="2702.5" y="-213" font-family="Arial" font-size="10.00" fill="#ffffff">0.00%</text>
<text text-anchor="middle" x="2702.5" y="-202" font-family="Arial" font-size="10.00" fill="#ffffff">(0.00%)</text>
<text text-anchor="middle" x="2702.5" y="-191" font-family="Arial" font-size="10.00" fill="#ffffff">2×</text>
</g>
<!-- 32 -->
<g id="node32" class="node"><title>32</title>
<polygon fill="#0d0d73" stroke="#0d0d73" points="2981,-236 2814,-236 2814,-184 2981,-184 2981,-236"/>
<text text-anchor="middle" x="2897.5" y="-224" font-family="Arial" font-size="10.00" fill="#ffffff">AdcLdd1_StartSingleMeasurement</text>
<text text-anchor="middle" x="2897.5" y="-213" font-family="Arial" font-size="10.00" fill="#ffffff">0.00%</text>
<text text-anchor="middle" x="2897.5" y="-202" font-family="Arial" font-size="10.00" fill="#ffffff">(0.00%)</text>
<text text-anchor="middle" x="2897.5" y="-191" font-family="Arial" font-size="10.00" fill="#ffffff">2×</text>
</g>
<!-- 33 -->
<g id="node33" class="node"><title>33</title>
<polygon fill="#0d0d73" stroke="#0d0d73" points="3086.5,-236 2990.5,-236 2990.5,-184 3086.5,-184 3086.5,-236"/>
<text text-anchor="middle" x="3038.5" y="-224" font-family="Arial" font-size="10.00" fill="#ffffff">AudioAmp_SetVal</text>
<text text-anchor="middle" x="3038.5" y="-213" font-family="Arial" font-size="10.00" fill="#ffffff">0.00%</text>
<text text-anchor="middle" x="3038.5" y="-202" font-family="Arial" font-size="10.00" fill="#ffffff">(0.00%)</text>
<text text-anchor="middle" x="3038.5" y="-191" font-family="Arial" font-size="10.00" fill="#ffffff">1×</text>
</g>
</g>
</svg>
