<?xml version="1.0" encoding="UTF-8" standalone="no"?>
<!DOCTYPE svg PUBLIC "-//W3C//DTD SVG 1.1//EN"
 "http://www.w3.org/Graphics/SVG/1.1/DTD/svg11.dtd">
<!-- Generated by graphviz version 2.38.0 (20140413.2041)
 -->
<!-- Title: %3 Pages: 1 -->
<svg width="3016pt" height="244pt"
 viewBox="0.00 0.00 3015.50 244.00" xmlns="http://www.w3.org/2000/svg" xmlns:xlink="http://www.w3.org/1999/xlink">
<g id="graph0" class="graph" transform="scale(1 1) rotate(0) translate(4 240)">
<title>%3</title>
<polygon fill="white" stroke="none" points="-4,4 -4,-240 3011.5,-240 3011.5,4 -4,4"/>
<!-- 1 -->
<g id="node1" class="node"><title>1</title>
<polygon fill="#43c108" stroke="#43c108" points="91,-230.5 0,-230.5 0,-189.5 91,-189.5 91,-230.5"/>
<text text-anchor="middle" x="45.5" y="-218.5" font-family="Arial" font-size="10.00" fill="#ffffff">_mcount_internal</text>
<text text-anchor="middle" x="45.5" y="-207.5" font-family="Arial" font-size="10.00" fill="#ffffff">57.93%</text>
<text text-anchor="middle" x="45.5" y="-196.5" font-family="Arial" font-size="10.00" fill="#ffffff">(57.93%)</text>
</g>
<!-- 2 -->
<g id="node2" class="node"><title>2</title>
<polygon fill="#0ba165" stroke="#0ba165" points="198.5,-230.5 100.5,-230.5 100.5,-189.5 198.5,-189.5 198.5,-230.5"/>
<text text-anchor="middle" x="149.5" y="-218.5" font-family="Arial" font-size="10.00" fill="#ffffff">vPortYieldFromISR</text>
<text text-anchor="middle" x="149.5" y="-207.5" font-family="Arial" font-size="10.00" fill="#ffffff">34.95%</text>
<text text-anchor="middle" x="149.5" y="-196.5" font-family="Arial" font-size="10.00" fill="#ffffff">(34.95%)</text>
</g>
<!-- 3 -->
<g id="node3" class="node"><title>3</title>
<polygon fill="#0d1876" stroke="#0d1876" points="312,-144 207,-144 207,-92 312,-92 312,-144"/>
<text text-anchor="middle" x="259.5" y="-132" font-family="Arial" font-size="10.00" fill="#ffffff">LCD_Text_PrintChar</text>
<text text-anchor="middle" x="259.5" y="-121" font-family="Arial" font-size="10.00" fill="#ffffff">2.59%</text>
<text text-anchor="middle" x="259.5" y="-110" font-family="Arial" font-size="10.00" fill="#ffffff">(0.97%)</text>
<text text-anchor="middle" x="259.5" y="-99" font-family="Arial" font-size="10.00" fill="#ffffff">6948×</text>
</g>
<!-- 5 -->
<g id="node4" class="node"><title>5</title>
<polygon fill="#0d1375" stroke="#0d1375" points="329.5,-52 189.5,-52 189.5,-0 329.5,-0 329.5,-52"/>
<text text-anchor="middle" x="259.5" y="-40" font-family="Arial" font-size="10.00" fill="#ffffff">LCD_Write_Rectangle_Pixel</text>
<text text-anchor="middle" x="259.5" y="-29" font-family="Arial" font-size="10.00" fill="#ffffff">1.62%</text>
<text text-anchor="middle" x="259.5" y="-18" font-family="Arial" font-size="10.00" fill="#ffffff">(1.62%)</text>
<text text-anchor="middle" x="259.5" y="-7" font-family="Arial" font-size="10.00" fill="#ffffff">689448×</text>
</g>
<!-- 3&#45;&gt;5 -->
<g id="edge1" class="edge"><title>3&#45;&gt;5</title>
<path fill="none" stroke="#0d1375" stroke-width="0.5" d="M259.5,-91.93C259.5,-80.7116 259.5,-67.4223 259.5,-55.7978"/>
<polygon fill="#0d1375" stroke="#0d1375" stroke-width="0.5" points="260.725,-55.7477 259.5,-52.2477 258.275,-55.7478 260.725,-55.7477"/>
<text text-anchor="middle" x="278.5" y="-75" font-family="Arial" font-size="10.00" fill="#0d1375">1.62%</text>
<text text-anchor="middle" x="278.5" y="-64" font-family="Arial" font-size="10.00" fill="#0d1375">689448×</text>
</g>
<!-- 4 -->
<g id="node5" class="node"><title>4</title>
<polygon fill="#0d1676" stroke="#0d1676" points="536,-230.5 439,-230.5 439,-189.5 536,-189.5 536,-230.5"/>
<text text-anchor="middle" x="487.5" y="-218.5" font-family="Arial" font-size="10.00" fill="#ffffff">Refill_Sound_Task</text>
<text text-anchor="middle" x="487.5" y="-207.5" font-family="Arial" font-size="10.00" fill="#ffffff">2.27%</text>
<text text-anchor="middle" x="487.5" y="-196.5" font-family="Arial" font-size="10.00" fill="#ffffff">(2.27%)</text>
</g>
<!-- 6 -->
<g id="node6" class="node"><title>6</title>
<polygon fill="#0d1375" stroke="#0d1375" points="325,-230.5 208,-230.5 208,-189.5 325,-189.5 325,-230.5"/>
<text text-anchor="middle" x="266.5" y="-218.5" font-family="Arial" font-size="10.00" fill="#ffffff">DacLdd1_DMA0_ChInit</text>
<text text-anchor="middle" x="266.5" y="-207.5" font-family="Arial" font-size="10.00" fill="#ffffff">1.61%</text>
<text text-anchor="middle" x="266.5" y="-196.5" font-family="Arial" font-size="10.00" fill="#ffffff">(0.00%)</text>
</g>
<!-- 6&#45;&gt;3 -->
<g id="edge2" class="edge"><title>6&#45;&gt;3</title>
<path fill="none" stroke="#0d1375" stroke-width="0.5" d="M263.961,-189.245C263.421,-184.58 262.895,-179.619 262.5,-175 261.745,-166.172 261.148,-156.545 260.691,-147.801"/>
<polygon fill="#0d1375" stroke="#0d1375" stroke-width="0.5" points="261.905,-147.546 260.504,-144.113 259.458,-147.67 261.905,-147.546"/>
<text text-anchor="middle" x="276.5" y="-167" font-family="Arial" font-size="10.00" fill="#0d1375">1.61%</text>
<text text-anchor="middle" x="276.5" y="-156" font-family="Arial" font-size="10.00" fill="#0d1375">4315×</text>
</g>
<!-- 18 -->
<g id="node7" class="node"><title>18</title>
<polygon fill="#0d0d73" stroke="#0d0d73" points="447.5,-144 321.5,-144 321.5,-92 447.5,-92 447.5,-144"/>
<text text-anchor="middle" x="384.5" y="-132" font-family="Arial" font-size="10.00" fill="#ffffff">convert_xyz_to_roll_pitch</text>
<text text-anchor="middle" x="384.5" y="-121" font-family="Arial" font-size="10.00" fill="#ffffff">0.00%</text>
<text text-anchor="middle" x="384.5" y="-110" font-family="Arial" font-size="10.00" fill="#ffffff">(0.00%)</text>
<text text-anchor="middle" x="384.5" y="-99" font-family="Arial" font-size="10.00" fill="#ffffff">270×</text>
</g>
<!-- 6&#45;&gt;18 -->
<g id="edge3" class="edge"><title>6&#45;&gt;18</title>
<path fill="none" stroke="#0d0d73" stroke-width="0.5" d="M279.365,-189.485C289.703,-173.894 302.776,-154.418 304.5,-153 308.747,-149.507 313.406,-146.32 318.273,-143.422"/>
<polygon fill="#0d0d73" stroke="#0d0d73" stroke-width="0.5" points="318.912,-144.468 321.329,-141.655 317.686,-142.347 318.912,-144.468"/>
<text text-anchor="middle" x="318.5" y="-167" font-family="Arial" font-size="10.00" fill="#0d0d73">0.00%</text>
<text text-anchor="middle" x="318.5" y="-156" font-family="Arial" font-size="10.00" fill="#0d0d73">164×</text>
</g>
<!-- 7 -->
<g id="node8" class="node"><title>7</title>
<polygon fill="#0d1174" stroke="#0d1174" points="430,-230.5 341,-230.5 341,-189.5 430,-189.5 430,-230.5"/>
<text text-anchor="middle" x="385.5" y="-218.5" font-family="Arial" font-size="10.00" fill="#ffffff">CmdParserTable</text>
<text text-anchor="middle" x="385.5" y="-207.5" font-family="Arial" font-size="10.00" fill="#ffffff">0.98%</text>
<text text-anchor="middle" x="385.5" y="-196.5" font-family="Arial" font-size="10.00" fill="#ffffff">(0.00%)</text>
</g>
<!-- 7&#45;&gt;3 -->
<g id="edge4" class="edge"><title>7&#45;&gt;3</title>
<path fill="none" stroke="#0d1174" stroke-width="0.5" d="M367.713,-189.498C354.887,-175.711 338.482,-158.705 330.5,-153 325.804,-149.644 320.725,-146.47 315.517,-143.509"/>
<polygon fill="#0d1174" stroke="#0d1174" stroke-width="0.5" points="315.914,-142.327 312.26,-141.693 314.721,-144.467 315.914,-142.327"/>
<text text-anchor="middle" x="367.5" y="-167" font-family="Arial" font-size="10.00" fill="#0d1174">0.98%</text>
<text text-anchor="middle" x="367.5" y="-156" font-family="Arial" font-size="10.00" fill="#0d1174">2633×</text>
</g>
<!-- 7&#45;&gt;18 -->
<g id="edge6" class="edge"><title>7&#45;&gt;18</title>
<path fill="none" stroke="#0d0d73" stroke-width="0.5" d="M385.283,-189.471C385.149,-177.374 384.973,-161.614 384.823,-148.067"/>
<polygon fill="#0d0d73" stroke="#0d0d73" stroke-width="0.5" points="386.045,-147.796 384.781,-144.31 383.595,-147.823 386.045,-147.796"/>
<text text-anchor="middle" x="399.5" y="-167" font-family="Arial" font-size="10.00" fill="#0d0d73">0.00%</text>
<text text-anchor="middle" x="399.5" y="-156" font-family="Arial" font-size="10.00" fill="#0d0d73">106×</text>
</g>
<!-- 11 -->
<g id="node9" class="node"><title>11</title>
<polygon fill="#0d0d73" stroke="#0d0d73" points="566.5,-144 456.5,-144 456.5,-92 566.5,-92 566.5,-144"/>
<text text-anchor="middle" x="511.5" y="-132" font-family="Arial" font-size="10.00" fill="#ffffff">LCD_Start_Rectangle</text>
<text text-anchor="middle" x="511.5" y="-121" font-family="Arial" font-size="10.00" fill="#ffffff">0.00%</text>
<text text-anchor="middle" x="511.5" y="-110" font-family="Arial" font-size="10.00" fill="#ffffff">(0.00%)</text>
<text text-anchor="middle" x="511.5" y="-99" font-family="Arial" font-size="10.00" fill="#ffffff">6948×</text>
</g>
<!-- 7&#45;&gt;11 -->
<g id="edge5" class="edge"><title>7&#45;&gt;11</title>
<path fill="none" stroke="#0d0d73" stroke-width="0.5" d="M412.84,-189.471C430.356,-176.96 453.355,-160.532 472.74,-146.686"/>
<polygon fill="#0d0d73" stroke="#0d0d73" stroke-width="0.5" points="473.931,-147.341 476.067,-144.31 472.507,-145.347 473.931,-147.341"/>
<text text-anchor="middle" x="477.5" y="-167" font-family="Arial" font-size="10.00" fill="#0d0d73">0.00%</text>
<text text-anchor="middle" x="477.5" y="-156" font-family="Arial" font-size="10.00" fill="#0d0d73">6948×</text>
</g>
<!-- 8 -->
<g id="node10" class="node"><title>8</title>
<polygon fill="#0d1174" stroke="#0d1174" points="698,-230.5 545,-230.5 545,-189.5 698,-189.5 698,-230.5"/>
<text text-anchor="middle" x="621.5" y="-218.5" font-family="Arial" font-size="10.00" fill="#ffffff">Sound_Generate_Next_Sample</text>
<text text-anchor="middle" x="621.5" y="-207.5" font-family="Arial" font-size="10.00" fill="#ffffff">0.97%</text>
<text text-anchor="middle" x="621.5" y="-196.5" font-family="Arial" font-size="10.00" fill="#ffffff">(0.97%)</text>
</g>
<!-- 9 -->
<g id="node11" class="node"><title>9</title>
<polygon fill="#0d0f74" stroke="#0d0f74" points="814,-230.5 707,-230.5 707,-189.5 814,-189.5 814,-230.5"/>
<text text-anchor="middle" x="760.5" y="-218.5" font-family="Arial" font-size="10.00" fill="#ffffff">GI2C1_ReadAddress</text>
<text text-anchor="middle" x="760.5" y="-207.5" font-family="Arial" font-size="10.00" fill="#ffffff">0.65%</text>
<text text-anchor="middle" x="760.5" y="-196.5" font-family="Arial" font-size="10.00" fill="#ffffff">(0.65%)</text>
</g>
<!-- 10 -->
<g id="node12" class="node"><title>10</title>
<polygon fill="#0d0f74" stroke="#0d0f74" points="919.5,-230.5 823.5,-230.5 823.5,-189.5 919.5,-189.5 919.5,-230.5"/>
<text text-anchor="middle" x="871.5" y="-218.5" font-family="Arial" font-size="10.00" fill="#ffffff">__gnu_mcount_nc</text>
<text text-anchor="middle" x="871.5" y="-207.5" font-family="Arial" font-size="10.00" fill="#ffffff">0.65%</text>
<text text-anchor="middle" x="871.5" y="-196.5" font-family="Arial" font-size="10.00" fill="#ffffff">(0.65%)</text>
</g>
<!-- 12 -->
<g id="node13" class="node"><title>12</title>
<polygon fill="#0d0d73" stroke="#0d0d73" points="1012.5,-236 928.5,-236 928.5,-184 1012.5,-184 1012.5,-236"/>
<text text-anchor="middle" x="970.5" y="-224" font-family="Arial" font-size="10.00" fill="#ffffff">CLS1_GetStdio</text>
<text text-anchor="middle" x="970.5" y="-213" font-family="Arial" font-size="10.00" fill="#ffffff">0.00%</text>
<text text-anchor="middle" x="970.5" y="-202" font-family="Arial" font-size="10.00" fill="#ffffff">(0.00%)</text>
<text text-anchor="middle" x="970.5" y="-191" font-family="Arial" font-size="10.00" fill="#ffffff">807×</text>
</g>
<!-- 13 -->
<g id="node14" class="node"><title>13</title>
<polygon fill="#0d0d73" stroke="#0d0d73" points="1137.5,-236 1021.5,-236 1021.5,-184 1137.5,-184 1137.5,-236"/>
<text text-anchor="middle" x="1079.5" y="-224" font-family="Arial" font-size="10.00" fill="#ffffff">LCD_Text_PrintStr_RC</text>
<text text-anchor="middle" x="1079.5" y="-213" font-family="Arial" font-size="10.00" fill="#ffffff">0.00%</text>
<text text-anchor="middle" x="1079.5" y="-202" font-family="Arial" font-size="10.00" fill="#ffffff">(0.00%)</text>
<text text-anchor="middle" x="1079.5" y="-191" font-family="Arial" font-size="10.00" fill="#ffffff">540×</text>
</g>
<!-- 14 -->
<g id="node15" class="node"><title>14</title>
<polygon fill="#0d0d73" stroke="#0d0d73" points="1246,-236 1147,-236 1147,-184 1246,-184 1246,-236"/>
<text text-anchor="middle" x="1196.5" y="-224" font-family="Arial" font-size="10.00" fill="#ffffff">CLS1_KeyPressed</text>
<text text-anchor="middle" x="1196.5" y="-213" font-family="Arial" font-size="10.00" fill="#ffffff">0.00%</text>
<text text-anchor="middle" x="1196.5" y="-202" font-family="Arial" font-size="10.00" fill="#ffffff">(0.00%)</text>
<text text-anchor="middle" x="1196.5" y="-191" font-family="Arial" font-size="10.00" fill="#ffffff">539×</text>
</g>
<!-- 15 -->
<g id="node16" class="node"><title>15</title>
<polygon fill="#0d0d73" stroke="#0d0d73" points="1247,-144 1176,-144 1176,-92 1247,-92 1247,-144"/>
<text text-anchor="middle" x="1211.5" y="-132" font-family="Arial" font-size="10.00" fill="#ffffff">MMA1_GetX</text>
<text text-anchor="middle" x="1211.5" y="-121" font-family="Arial" font-size="10.00" fill="#ffffff">0.00%</text>
<text text-anchor="middle" x="1211.5" y="-110" font-family="Arial" font-size="10.00" fill="#ffffff">(0.00%)</text>
<text text-anchor="middle" x="1211.5" y="-99" font-family="Arial" font-size="10.00" fill="#ffffff">270×</text>
</g>
<!-- 16 -->
<g id="node17" class="node"><title>16</title>
<polygon fill="#0d0d73" stroke="#0d0d73" points="1329,-144 1256,-144 1256,-92 1329,-92 1329,-144"/>
<text text-anchor="middle" x="1292.5" y="-132" font-family="Arial" font-size="10.00" fill="#ffffff">MMA1_GetY</text>
<text text-anchor="middle" x="1292.5" y="-121" font-family="Arial" font-size="10.00" fill="#ffffff">0.00%</text>
<text text-anchor="middle" x="1292.5" y="-110" font-family="Arial" font-size="10.00" fill="#ffffff">(0.00%)</text>
<text text-anchor="middle" x="1292.5" y="-99" font-family="Arial" font-size="10.00" fill="#ffffff">270×</text>
</g>
<!-- 17 -->
<g id="node18" class="node"><title>17</title>
<polygon fill="#0d0d73" stroke="#0d0d73" points="1409,-144 1338,-144 1338,-92 1409,-92 1409,-144"/>
<text text-anchor="middle" x="1373.5" y="-132" font-family="Arial" font-size="10.00" fill="#ffffff">MMA1_GetZ</text>
<text text-anchor="middle" x="1373.5" y="-121" font-family="Arial" font-size="10.00" fill="#ffffff">0.00%</text>
<text text-anchor="middle" x="1373.5" y="-110" font-family="Arial" font-size="10.00" fill="#ffffff">(0.00%)</text>
<text text-anchor="middle" x="1373.5" y="-99" font-family="Arial" font-size="10.00" fill="#ffffff">270×</text>
</g>
<!-- 19 -->
<g id="node19" class="node"><title>19</title>
<polygon fill="#0d0d73" stroke="#0d0d73" points="1329.5,-236 1255.5,-236 1255.5,-184 1329.5,-184 1329.5,-236"/>
<text text-anchor="middle" x="1292.5" y="-224" font-family="Arial" font-size="10.00" fill="#ffffff">read_full_xyz</text>
<text text-anchor="middle" x="1292.5" y="-213" font-family="Arial" font-size="10.00" fill="#ffffff">0.00%</text>
<text text-anchor="middle" x="1292.5" y="-202" font-family="Arial" font-size="10.00" fill="#ffffff">(0.00%)</text>
<text text-anchor="middle" x="1292.5" y="-191" font-family="Arial" font-size="10.00" fill="#ffffff">270×</text>
</g>
<!-- 19&#45;&gt;15 -->
<g id="edge7" class="edge"><title>19&#45;&gt;15</title>
<path fill="none" stroke="#0d0d73" stroke-width="0.5" d="M1269.94,-183.93C1259.58,-172.421 1247.26,-158.734 1236.61,-146.899"/>
<polygon fill="#0d0d73" stroke="#0d0d73" stroke-width="0.5" points="1237.47,-146.03 1234.22,-144.248 1235.65,-147.669 1237.47,-146.03"/>
<text text-anchor="middle" x="1275.5" y="-167" font-family="Arial" font-size="10.00" fill="#0d0d73">0.00%</text>
<text text-anchor="middle" x="1275.5" y="-156" font-family="Arial" font-size="10.00" fill="#0d0d73">270×</text>
</g>
<!-- 19&#45;&gt;16 -->
<g id="edge8" class="edge"><title>19&#45;&gt;16</title>
<path fill="none" stroke="#0d0d73" stroke-width="0.5" d="M1292.5,-183.93C1292.5,-172.712 1292.5,-159.422 1292.5,-147.798"/>
<polygon fill="#0d0d73" stroke="#0d0d73" stroke-width="0.5" points="1293.73,-147.748 1292.5,-144.248 1291.28,-147.748 1293.73,-147.748"/>
<text text-anchor="middle" x="1306.5" y="-167" font-family="Arial" font-size="10.00" fill="#0d0d73">0.00%</text>
<text text-anchor="middle" x="1306.5" y="-156" font-family="Arial" font-size="10.00" fill="#0d0d73">270×</text>
</g>
<!-- 19&#45;&gt;17 -->
<g id="edge9" class="edge"><title>19&#45;&gt;17</title>
<path fill="none" stroke="#0d0d73" stroke-width="0.5" d="M1315.06,-183.93C1325.42,-172.421 1337.74,-158.734 1348.39,-146.899"/>
<polygon fill="#0d0d73" stroke="#0d0d73" stroke-width="0.5" points="1349.35,-147.669 1350.78,-144.248 1347.53,-146.03 1349.35,-147.669"/>
<text text-anchor="middle" x="1356.5" y="-167" font-family="Arial" font-size="10.00" fill="#0d0d73">0.00%</text>
<text text-anchor="middle" x="1356.5" y="-156" font-family="Arial" font-size="10.00" fill="#0d0d73">270×</text>
</g>
<!-- 20 -->
<g id="node20" class="node"><title>20</title>
<polygon fill="#0d0d73" stroke="#0d0d73" points="1488,-236 1339,-236 1339,-184 1488,-184 1488,-236"/>
<text text-anchor="middle" x="1413.5" y="-224" font-family="Arial" font-size="10.00" fill="#ffffff">UTIL1_ScanDecimal8uNumber</text>
<text text-anchor="middle" x="1413.5" y="-213" font-family="Arial" font-size="10.00" fill="#ffffff">0.00%</text>
<text text-anchor="middle" x="1413.5" y="-202" font-family="Arial" font-size="10.00" fill="#ffffff">(0.00%)</text>
<text text-anchor="middle" x="1413.5" y="-191" font-family="Arial" font-size="10.00" fill="#ffffff">269×</text>
</g>
<!-- 21 -->
<g id="node21" class="node"><title>21</title>
<polygon fill="#0d0d73" stroke="#0d0d73" points="1586,-236 1497,-236 1497,-184 1586,-184 1586,-236"/>
<text text-anchor="middle" x="1541.5" y="-224" font-family="Arial" font-size="10.00" fill="#ffffff">BitIoLdd1_ClrVal</text>
<text text-anchor="middle" x="1541.5" y="-213" font-family="Arial" font-size="10.00" fill="#ffffff">0.00%</text>
<text text-anchor="middle" x="1541.5" y="-202" font-family="Arial" font-size="10.00" fill="#ffffff">(0.00%)</text>
<text text-anchor="middle" x="1541.5" y="-191" font-family="Arial" font-size="10.00" fill="#ffffff">58×</text>
</g>
<!-- 22 -->
<g id="node22" class="node"><title>22</title>
<polygon fill="#0d0d73" stroke="#0d0d73" points="1684,-236 1595,-236 1595,-184 1684,-184 1684,-236"/>
<text text-anchor="middle" x="1639.5" y="-224" font-family="Arial" font-size="10.00" fill="#ffffff">BitIoLdd2_ClrVal</text>
<text text-anchor="middle" x="1639.5" y="-213" font-family="Arial" font-size="10.00" fill="#ffffff">0.00%</text>
<text text-anchor="middle" x="1639.5" y="-202" font-family="Arial" font-size="10.00" fill="#ffffff">(0.00%)</text>
<text text-anchor="middle" x="1639.5" y="-191" font-family="Arial" font-size="10.00" fill="#ffffff">58×</text>
</g>
<!-- 23 -->
<g id="node23" class="node"><title>23</title>
<polygon fill="#0d0d73" stroke="#0d0d73" points="1785.5,-236 1693.5,-236 1693.5,-184 1785.5,-184 1785.5,-236"/>
<text text-anchor="middle" x="1739.5" y="-224" font-family="Arial" font-size="10.00" fill="#ffffff">BitIoLdd3_SetVal</text>
<text text-anchor="middle" x="1739.5" y="-213" font-family="Arial" font-size="10.00" fill="#ffffff">0.00%</text>
<text text-anchor="middle" x="1739.5" y="-202" font-family="Arial" font-size="10.00" fill="#ffffff">(0.00%)</text>
<text text-anchor="middle" x="1739.5" y="-191" font-family="Arial" font-size="10.00" fill="#ffffff">58×</text>
</g>
<!-- 24 -->
<g id="node24" class="node"><title>24</title>
<polygon fill="#0d0d73" stroke="#0d0d73" points="1886.5,-236 1794.5,-236 1794.5,-184 1886.5,-184 1886.5,-236"/>
<text text-anchor="middle" x="1840.5" y="-224" font-family="Arial" font-size="10.00" fill="#ffffff">BitIoLdd1_SetVal</text>
<text text-anchor="middle" x="1840.5" y="-213" font-family="Arial" font-size="10.00" fill="#ffffff">0.00%</text>
<text text-anchor="middle" x="1840.5" y="-202" font-family="Arial" font-size="10.00" fill="#ffffff">(0.00%)</text>
<text text-anchor="middle" x="1840.5" y="-191" font-family="Arial" font-size="10.00" fill="#ffffff">57×</text>
</g>
<!-- 25 -->
<g id="node25" class="node"><title>25</title>
<polygon fill="#0d0d73" stroke="#0d0d73" points="1987.5,-236 1895.5,-236 1895.5,-184 1987.5,-184 1987.5,-236"/>
<text text-anchor="middle" x="1941.5" y="-224" font-family="Arial" font-size="10.00" fill="#ffffff">BitIoLdd2_SetVal</text>
<text text-anchor="middle" x="1941.5" y="-213" font-family="Arial" font-size="10.00" fill="#ffffff">0.00%</text>
<text text-anchor="middle" x="1941.5" y="-202" font-family="Arial" font-size="10.00" fill="#ffffff">(0.00%)</text>
<text text-anchor="middle" x="1941.5" y="-191" font-family="Arial" font-size="10.00" fill="#ffffff">57×</text>
</g>
<!-- 26 -->
<g id="node26" class="node"><title>26</title>
<polygon fill="#0d0d73" stroke="#0d0d73" points="2086,-236 1997,-236 1997,-184 2086,-184 2086,-236"/>
<text text-anchor="middle" x="2041.5" y="-224" font-family="Arial" font-size="10.00" fill="#ffffff">BitIoLdd3_ClrVal</text>
<text text-anchor="middle" x="2041.5" y="-213" font-family="Arial" font-size="10.00" fill="#ffffff">0.00%</text>
<text text-anchor="middle" x="2041.5" y="-202" font-family="Arial" font-size="10.00" fill="#ffffff">(0.00%)</text>
<text text-anchor="middle" x="2041.5" y="-191" font-family="Arial" font-size="10.00" fill="#ffffff">57×</text>
</g>
<!-- 27 -->
<g id="node27" class="node"><title>27</title>
<polygon fill="#0d0d73" stroke="#0d0d73" points="2196,-236 2095,-236 2095,-184 2196,-184 2196,-236"/>
<text text-anchor="middle" x="2145.5" y="-224" font-family="Arial" font-size="10.00" fill="#ffffff">AD1_MeasureChan</text>
<text text-anchor="middle" x="2145.5" y="-213" font-family="Arial" font-size="10.00" fill="#ffffff">0.00%</text>
<text text-anchor="middle" x="2145.5" y="-202" font-family="Arial" font-size="10.00" fill="#ffffff">(0.00%)</text>
<text text-anchor="middle" x="2145.5" y="-191" font-family="Arial" font-size="10.00" fill="#ffffff">2×</text>
</g>
<!-- 28 -->
<g id="node28" class="node"><title>28</title>
<polygon fill="#0d0d73" stroke="#0d0d73" points="2353.5,-236 2205.5,-236 2205.5,-184 2353.5,-184 2353.5,-236"/>
<text text-anchor="middle" x="2279.5" y="-224" font-family="Arial" font-size="10.00" fill="#ffffff">AdcLdd1_CreateSampleGroup</text>
<text text-anchor="middle" x="2279.5" y="-213" font-family="Arial" font-size="10.00" fill="#ffffff">0.00%</text>
<text text-anchor="middle" x="2279.5" y="-202" font-family="Arial" font-size="10.00" fill="#ffffff">(0.00%)</text>
<text text-anchor="middle" x="2279.5" y="-191" font-family="Arial" font-size="10.00" fill="#ffffff">2×</text>
</g>
<!-- 29 -->
<g id="node29" class="node"><title>29</title>
<polygon fill="#0d0d73" stroke="#0d0d73" points="2512,-236 2363,-236 2363,-184 2512,-184 2512,-236"/>
<text text-anchor="middle" x="2437.5" y="-224" font-family="Arial" font-size="10.00" fill="#ffffff">AdcLdd1_GetMeasuredValues</text>
<text text-anchor="middle" x="2437.5" y="-213" font-family="Arial" font-size="10.00" fill="#ffffff">0.00%</text>
<text text-anchor="middle" x="2437.5" y="-202" font-family="Arial" font-size="10.00" fill="#ffffff">(0.00%)</text>
<text text-anchor="middle" x="2437.5" y="-191" font-family="Arial" font-size="10.00" fill="#ffffff">2×</text>
</g>
<!-- 30 -->
<g id="node30" class="node"><title>30</title>
<polygon fill="#0d0d73" stroke="#0d0d73" points="2726,-236 2521,-236 2521,-184 2726,-184 2726,-236"/>
<text text-anchor="middle" x="2623.5" y="-224" font-family="Arial" font-size="10.00" fill="#ffffff">AdcLdd1_GetMeasurementCompleteStatus</text>
<text text-anchor="middle" x="2623.5" y="-213" font-family="Arial" font-size="10.00" fill="#ffffff">0.00%</text>
<text text-anchor="middle" x="2623.5" y="-202" font-family="Arial" font-size="10.00" fill="#ffffff">(0.00%)</text>
<text text-anchor="middle" x="2623.5" y="-191" font-family="Arial" font-size="10.00" fill="#ffffff">2×</text>
</g>
<!-- 31 -->
<g id="node31" class="node"><title>31</title>
<polygon fill="#0d0d73" stroke="#0d0d73" points="2902,-236 2735,-236 2735,-184 2902,-184 2902,-236"/>
<text text-anchor="middle" x="2818.5" y="-224" font-family="Arial" font-size="10.00" fill="#ffffff">AdcLdd1_StartSingleMeasurement</text>
<text text-anchor="middle" x="2818.5" y="-213" font-family="Arial" font-size="10.00" fill="#ffffff">0.00%</text>
<text text-anchor="middle" x="2818.5" y="-202" font-family="Arial" font-size="10.00" fill="#ffffff">(0.00%)</text>
<text text-anchor="middle" x="2818.5" y="-191" font-family="Arial" font-size="10.00" fill="#ffffff">2×</text>
</g>
<!-- 32 -->
<g id="node32" class="node"><title>32</title>
<polygon fill="#0d0d73" stroke="#0d0d73" points="3007.5,-236 2911.5,-236 2911.5,-184 3007.5,-184 3007.5,-236"/>
<text text-anchor="middle" x="2959.5" y="-224" font-family="Arial" font-size="10.00" fill="#ffffff">AudioAmp_SetVal</text>
<text text-anchor="middle" x="2959.5" y="-213" font-family="Arial" font-size="10.00" fill="#ffffff">0.00%</text>
<text text-anchor="middle" x="2959.5" y="-202" font-family="Arial" font-size="10.00" fill="#ffffff">(0.00%)</text>
<text text-anchor="middle" x="2959.5" y="-191" font-family="Arial" font-size="10.00" fill="#ffffff">1×</text>
</g>
</g>
</svg>
