<?xml version="1.0" encoding="UTF-8" standalone="no"?>
<!DOCTYPE svg PUBLIC "-//W3C//DTD SVG 1.1//EN"
 "http://www.w3.org/Graphics/SVG/1.1/DTD/svg11.dtd">
<!-- Generated by graphviz version 2.38.0 (20140413.2041)
 -->
<!-- Title: %3 Pages: 1 -->
<svg width="768pt" height="325pt"
 viewBox="0.00 0.00 768.00 325.00" xmlns="http://www.w3.org/2000/svg" xmlns:xlink="http://www.w3.org/1999/xlink">
<g id="graph0" class="graph" transform="scale(1 1) rotate(0) translate(4 321)">
<title>%3</title>
<polygon fill="white" stroke="none" points="-4,4 -4,-321 764,-321 764,4 -4,4"/>
<!-- 1 -->
<g id="node1" class="node"><title>1</title>
<polygon fill="#0ba35d" stroke="#0ba35d" points="112,-317 7.10543e-015,-317 7.10543e-015,-276 112,-276 112,-317"/>
<text text-anchor="middle" x="56" y="-305" font-family="Arial" font-size="10.00" fill="#ffffff">WAIT1_Wait10Cycles</text>
<text text-anchor="middle" x="56" y="-294" font-family="Arial" font-size="10.00" fill="#ffffff">36.55%</text>
<text text-anchor="middle" x="56" y="-283" font-family="Arial" font-size="10.00" fill="#ffffff">(36.55%)</text>
</g>
<!-- 2 -->
<g id="node2" class="node"><title>2</title>
<polygon fill="#0c748d" stroke="#0c748d" points="177,-317 121,-317 121,-276 177,-276 177,-317"/>
<text text-anchor="middle" x="149" y="-305" font-family="Arial" font-size="10.00" fill="#ffffff">loop</text>
<text text-anchor="middle" x="149" y="-294" font-family="Arial" font-size="10.00" fill="#ffffff">20.10%</text>
<text text-anchor="middle" x="149" y="-283" font-family="Arial" font-size="10.00" fill="#ffffff">(20.10%)</text>
</g>
<!-- 3 -->
<g id="node3" class="node"><title>3</title>
<polygon fill="#0c5c88" stroke="#0c5c88" points="303.5,-317 186.5,-317 186.5,-276 303.5,-276 303.5,-317"/>
<text text-anchor="middle" x="245" y="-305" font-family="Arial" font-size="10.00" fill="#ffffff">WAIT1_Wait100Cycles</text>
<text text-anchor="middle" x="245" y="-294" font-family="Arial" font-size="10.00" fill="#ffffff">16.16%</text>
<text text-anchor="middle" x="245" y="-283" font-family="Arial" font-size="10.00" fill="#ffffff">(16.16%)</text>
</g>
<!-- 4 -->
<g id="node4" class="node"><title>4</title>
<polygon fill="#0c5085" stroke="#0c5085" points="149.5,-52 48.5,-52 48.5,-0 149.5,-0 149.5,-52"/>
<text text-anchor="middle" x="99" y="-40" font-family="Arial" font-size="10.00" fill="#ffffff">WAIT1_WaitCycles</text>
<text text-anchor="middle" x="99" y="-29" font-family="Arial" font-size="10.00" fill="#ffffff">14.02%</text>
<text text-anchor="middle" x="99" y="-18" font-family="Arial" font-size="10.00" fill="#ffffff">(14.02%)</text>
<text text-anchor="middle" x="99" y="-7" font-family="Arial" font-size="10.00" fill="#ffffff">91876×</text>
</g>
<!-- 5 -->
<g id="node5" class="node"><title>5</title>
<polygon fill="#0c5085" stroke="#0c5085" points="160,-144 38,-144 38,-92 160,-92 160,-144"/>
<text text-anchor="middle" x="99" y="-132" font-family="Arial" font-size="10.00" fill="#ffffff">WAIT1_WaitLongCycles</text>
<text text-anchor="middle" x="99" y="-121" font-family="Arial" font-size="10.00" fill="#ffffff">14.02%</text>
<text text-anchor="middle" x="99" y="-110" font-family="Arial" font-size="10.00" fill="#ffffff">(0.00%)</text>
<text text-anchor="middle" x="99" y="-99" font-family="Arial" font-size="10.00" fill="#ffffff">91876×</text>
</g>
<!-- 5&#45;&gt;4 -->
<g id="edge1" class="edge"><title>5&#45;&gt;4</title>
<path fill="none" stroke="#0c5085" stroke-width="0.56" d="M99,-91.93C99,-80.8083 99,-67.6513 99,-56.0988"/>
<polygon fill="#0c5085" stroke="#0c5085" stroke-width="0.56" points="100.295,-55.9477 99,-52.2477 97.7051,-55.9478 100.295,-55.9477"/>
<text text-anchor="middle" x="116" y="-75" font-family="Arial" font-size="10.00" fill="#0c5085">14.02%</text>
<text text-anchor="middle" x="116" y="-64" font-family="Arial" font-size="10.00" fill="#0c5085">91876×</text>
</g>
<!-- 6 -->
<g id="node6" class="node"><title>6</title>
<polygon fill="#0c5085" stroke="#0c5085" points="271.5,-236 186.5,-236 186.5,-184 271.5,-184 271.5,-236"/>
<text text-anchor="middle" x="229" y="-224" font-family="Arial" font-size="10.00" fill="#ffffff">WAIT1_Waitms</text>
<text text-anchor="middle" x="229" y="-213" font-family="Arial" font-size="10.00" fill="#ffffff">14.02%</text>
<text text-anchor="middle" x="229" y="-202" font-family="Arial" font-size="10.00" fill="#ffffff">(0.00%)</text>
<text text-anchor="middle" x="229" y="-191" font-family="Arial" font-size="10.00" fill="#ffffff">184×</text>
</g>
<!-- 6&#45;&gt;5 -->
<g id="edge2" class="edge"><title>6&#45;&gt;5</title>
<path fill="none" stroke="#0c5085" stroke-width="0.56" d="M186.203,-185.861C180.332,-182.367 174.453,-178.692 169,-175 156.169,-166.313 142.731,-155.913 131.098,-146.446"/>
<polygon fill="#0c5085" stroke="#0c5085" stroke-width="0.56" points="131.865,-145.4 128.181,-144.061 130.225,-147.405 131.865,-145.4"/>
<text text-anchor="middle" x="186" y="-167" font-family="Arial" font-size="10.00" fill="#0c5085">14.02%</text>
<text text-anchor="middle" x="186" y="-156" font-family="Arial" font-size="10.00" fill="#0c5085">91876×</text>
</g>
<!-- 7 -->
<g id="node7" class="node"><title>7</title>
<polygon fill="#0c5085" stroke="#0c5085" points="363,-317 313,-317 313,-276 363,-276 363,-317"/>
<text text-anchor="middle" x="338" y="-305" font-family="Arial" font-size="10.00" fill="#ffffff">main</text>
<text text-anchor="middle" x="338" y="-294" font-family="Arial" font-size="10.00" fill="#ffffff">14.02%</text>
<text text-anchor="middle" x="338" y="-283" font-family="Arial" font-size="10.00" fill="#ffffff">(0.00%)</text>
</g>
<!-- 7&#45;&gt;6 -->
<g id="edge3" class="edge"><title>7&#45;&gt;6</title>
<path fill="none" stroke="#0c5085" stroke-width="0.56" d="M312.993,-276.114C298.616,-264.968 280.319,-250.784 264.476,-238.502"/>
<polygon fill="#0c5085" stroke="#0c5085" stroke-width="0.56" points="265.059,-237.316 261.342,-236.072 263.473,-239.363 265.059,-237.316"/>
<text text-anchor="middle" x="316" y="-259" font-family="Arial" font-size="10.00" fill="#0c5085">14.02%</text>
<text text-anchor="middle" x="316" y="-248" font-family="Arial" font-size="10.00" fill="#0c5085">184×</text>
</g>
<!-- 10 -->
<g id="node8" class="node"><title>10</title>
<polygon fill="#0d0d73" stroke="#0d0d73" points="451.5,-236 376.5,-236 376.5,-184 451.5,-184 451.5,-236"/>
<text text-anchor="middle" x="414" y="-224" font-family="Arial" font-size="10.00" fill="#ffffff">control_LEDs</text>
<text text-anchor="middle" x="414" y="-213" font-family="Arial" font-size="10.00" fill="#ffffff">0.00%</text>
<text text-anchor="middle" x="414" y="-202" font-family="Arial" font-size="10.00" fill="#ffffff">(0.00%)</text>
<text text-anchor="middle" x="414" y="-191" font-family="Arial" font-size="10.00" fill="#ffffff">184×</text>
</g>
<!-- 7&#45;&gt;10 -->
<g id="edge4" class="edge"><title>7&#45;&gt;10</title>
<path fill="none" stroke="#0d0d73" stroke-width="0.5" d="M355.627,-275.902C365.493,-264.933 377.959,-251.072 388.836,-238.978"/>
<polygon fill="#0d0d73" stroke="#0d0d73" stroke-width="0.5" points="389.845,-239.688 391.275,-236.267 388.023,-238.05 389.845,-239.688"/>
<text text-anchor="middle" x="396" y="-259" font-family="Arial" font-size="10.00" fill="#0d0d73">0.00%</text>
<text text-anchor="middle" x="396" y="-248" font-family="Arial" font-size="10.00" fill="#0d0d73">184×</text>
</g>
<!-- 11 -->
<g id="node11" class="node"><title>11</title>
<polygon fill="#0d0d73" stroke="#0d0d73" points="258.5,-144 169.5,-144 169.5,-92 258.5,-92 258.5,-144"/>
<text text-anchor="middle" x="214" y="-132" font-family="Arial" font-size="10.00" fill="#ffffff">BitIoLdd2_ClrVal</text>
<text text-anchor="middle" x="214" y="-121" font-family="Arial" font-size="10.00" fill="#ffffff">0.00%</text>
<text text-anchor="middle" x="214" y="-110" font-family="Arial" font-size="10.00" fill="#ffffff">(0.00%)</text>
<text text-anchor="middle" x="214" y="-99" font-family="Arial" font-size="10.00" fill="#ffffff">92×</text>
</g>
<!-- 10&#45;&gt;11 -->
<g id="edge5" class="edge"><title>10&#45;&gt;11</title>
<path fill="none" stroke="#0d0d73" stroke-width="0.5" d="M376.425,-196.307C359.587,-190.315 339.599,-182.779 322,-175 301.912,-166.121 280.325,-155.216 261.77,-145.396"/>
<polygon fill="#0d0d73" stroke="#0d0d73" stroke-width="0.5" points="262.247,-144.262 258.581,-143.703 261.098,-146.426 262.247,-144.262"/>
<text text-anchor="middle" x="336" y="-167" font-family="Arial" font-size="10.00" fill="#0d0d73">0.00%</text>
<text text-anchor="middle" x="336" y="-156" font-family="Arial" font-size="10.00" fill="#0d0d73">92×</text>
</g>
<!-- 12 -->
<g id="node12" class="node"><title>12</title>
<polygon fill="#0d0d73" stroke="#0d0d73" points="360,-144 268,-144 268,-92 360,-92 360,-144"/>
<text text-anchor="middle" x="314" y="-132" font-family="Arial" font-size="10.00" fill="#ffffff">BitIoLdd2_SetVal</text>
<text text-anchor="middle" x="314" y="-121" font-family="Arial" font-size="10.00" fill="#ffffff">0.00%</text>
<text text-anchor="middle" x="314" y="-110" font-family="Arial" font-size="10.00" fill="#ffffff">(0.00%)</text>
<text text-anchor="middle" x="314" y="-99" font-family="Arial" font-size="10.00" fill="#ffffff">92×</text>
</g>
<!-- 10&#45;&gt;12 -->
<g id="edge6" class="edge"><title>10&#45;&gt;12</title>
<path fill="none" stroke="#0d0d73" stroke-width="0.5" d="M386.144,-183.93C373.25,-172.325 357.893,-158.503 344.668,-146.601"/>
<polygon fill="#0d0d73" stroke="#0d0d73" stroke-width="0.5" points="345.474,-145.679 342.053,-144.248 343.835,-147.5 345.474,-145.679"/>
<text text-anchor="middle" x="389" y="-167" font-family="Arial" font-size="10.00" fill="#0d0d73">0.00%</text>
<text text-anchor="middle" x="389" y="-156" font-family="Arial" font-size="10.00" fill="#0d0d73">92×</text>
</g>
<!-- 13 -->
<g id="node13" class="node"><title>13</title>
<polygon fill="#0d0d73" stroke="#0d0d73" points="458.5,-144 369.5,-144 369.5,-92 458.5,-92 458.5,-144"/>
<text text-anchor="middle" x="414" y="-132" font-family="Arial" font-size="10.00" fill="#ffffff">BitIoLdd3_ClrVal</text>
<text text-anchor="middle" x="414" y="-121" font-family="Arial" font-size="10.00" fill="#ffffff">0.00%</text>
<text text-anchor="middle" x="414" y="-110" font-family="Arial" font-size="10.00" fill="#ffffff">(0.00%)</text>
<text text-anchor="middle" x="414" y="-99" font-family="Arial" font-size="10.00" fill="#ffffff">92×</text>
</g>
<!-- 10&#45;&gt;13 -->
<g id="edge7" class="edge"><title>10&#45;&gt;13</title>
<path fill="none" stroke="#0d0d73" stroke-width="0.5" d="M414,-183.93C414,-172.712 414,-159.422 414,-147.798"/>
<polygon fill="#0d0d73" stroke="#0d0d73" stroke-width="0.5" points="415.225,-147.748 414,-144.248 412.775,-147.748 415.225,-147.748"/>
<text text-anchor="middle" x="428" y="-167" font-family="Arial" font-size="10.00" fill="#0d0d73">0.00%</text>
<text text-anchor="middle" x="428" y="-156" font-family="Arial" font-size="10.00" fill="#0d0d73">92×</text>
</g>
<!-- 14 -->
<g id="node14" class="node"><title>14</title>
<polygon fill="#0d0d73" stroke="#0d0d73" points="560,-144 468,-144 468,-92 560,-92 560,-144"/>
<text text-anchor="middle" x="514" y="-132" font-family="Arial" font-size="10.00" fill="#ffffff">BitIoLdd3_SetVal</text>
<text text-anchor="middle" x="514" y="-121" font-family="Arial" font-size="10.00" fill="#ffffff">0.00%</text>
<text text-anchor="middle" x="514" y="-110" font-family="Arial" font-size="10.00" fill="#ffffff">(0.00%)</text>
<text text-anchor="middle" x="514" y="-99" font-family="Arial" font-size="10.00" fill="#ffffff">92×</text>
</g>
<!-- 10&#45;&gt;14 -->
<g id="edge8" class="edge"><title>10&#45;&gt;14</title>
<path fill="none" stroke="#0d0d73" stroke-width="0.5" d="M441.856,-183.93C454.75,-172.325 470.107,-158.503 483.332,-146.601"/>
<polygon fill="#0d0d73" stroke="#0d0d73" stroke-width="0.5" points="484.165,-147.5 485.947,-144.248 482.526,-145.679 484.165,-147.5"/>
<text text-anchor="middle" x="489" y="-167" font-family="Arial" font-size="10.00" fill="#0d0d73">0.00%</text>
<text text-anchor="middle" x="489" y="-156" font-family="Arial" font-size="10.00" fill="#0d0d73">92×</text>
</g>
<!-- 15 -->
<g id="node15" class="node"><title>15</title>
<polygon fill="#0d0d73" stroke="#0d0d73" points="658.5,-144 569.5,-144 569.5,-92 658.5,-92 658.5,-144"/>
<text text-anchor="middle" x="614" y="-132" font-family="Arial" font-size="10.00" fill="#ffffff">BitIoLdd4_ClrVal</text>
<text text-anchor="middle" x="614" y="-121" font-family="Arial" font-size="10.00" fill="#ffffff">0.00%</text>
<text text-anchor="middle" x="614" y="-110" font-family="Arial" font-size="10.00" fill="#ffffff">(0.00%)</text>
<text text-anchor="middle" x="614" y="-99" font-family="Arial" font-size="10.00" fill="#ffffff">92×</text>
</g>
<!-- 10&#45;&gt;15 -->
<g id="edge9" class="edge"><title>10&#45;&gt;15</title>
<path fill="none" stroke="#0d0d73" stroke-width="0.5" d="M451.587,-196.076C468.145,-190.097 487.722,-182.635 505,-175 525.419,-165.977 547.412,-154.943 566.257,-145.062"/>
<polygon fill="#0d0d73" stroke="#0d0d73" stroke-width="0.5" points="566.968,-146.072 569.496,-143.359 565.828,-143.904 566.968,-146.072"/>
<text text-anchor="middle" x="564" y="-167" font-family="Arial" font-size="10.00" fill="#0d0d73">0.00%</text>
<text text-anchor="middle" x="564" y="-156" font-family="Arial" font-size="10.00" fill="#0d0d73">92×</text>
</g>
<!-- 16 -->
<g id="node16" class="node"><title>16</title>
<polygon fill="#0d0d73" stroke="#0d0d73" points="760,-144 668,-144 668,-92 760,-92 760,-144"/>
<text text-anchor="middle" x="714" y="-132" font-family="Arial" font-size="10.00" fill="#ffffff">BitIoLdd4_SetVal</text>
<text text-anchor="middle" x="714" y="-121" font-family="Arial" font-size="10.00" fill="#ffffff">0.00%</text>
<text text-anchor="middle" x="714" y="-110" font-family="Arial" font-size="10.00" fill="#ffffff">(0.00%)</text>
<text text-anchor="middle" x="714" y="-99" font-family="Arial" font-size="10.00" fill="#ffffff">92×</text>
</g>
<!-- 10&#45;&gt;16 -->
<g id="edge10" class="edge"><title>10&#45;&gt;16</title>
<path fill="none" stroke="#0d0d73" stroke-width="0.5" d="M451.652,-203.009C485.563,-197.208 536.599,-187.468 580,-175 617.847,-164.128 626.833,-159.574 663,-144 663.509,-143.781 664.021,-143.559 664.535,-143.335"/>
<polygon fill="#0d0d73" stroke="#0d0d73" stroke-width="0.5" points="665.242,-144.362 667.948,-141.826 664.252,-142.121 665.242,-144.362"/>
<text text-anchor="middle" x="654" y="-167" font-family="Arial" font-size="10.00" fill="#0d0d73">0.00%</text>
<text text-anchor="middle" x="654" y="-156" font-family="Arial" font-size="10.00" fill="#0d0d73">92×</text>
</g>
<!-- 8 -->
<g id="node9" class="node"><title>8</title>
<polygon fill="#0d4482" stroke="#0d4482" points="463.5,-317 372.5,-317 372.5,-276 463.5,-276 463.5,-317"/>
<text text-anchor="middle" x="418" y="-305" font-family="Arial" font-size="10.00" fill="#ffffff">_mcount_internal</text>
<text text-anchor="middle" x="418" y="-294" font-family="Arial" font-size="10.00" fill="#ffffff">11.77%</text>
<text text-anchor="middle" x="418" y="-283" font-family="Arial" font-size="10.00" fill="#ffffff">(11.77%)</text>
</g>
<!-- 9 -->
<g id="node10" class="node"><title>9</title>
<polygon fill="#0d1375" stroke="#0d1375" points="541,-317 473,-317 473,-276 541,-276 541,-317"/>
<text text-anchor="middle" x="507" y="-305" font-family="Arial" font-size="10.00" fill="#ffffff">MCUC1_Init</text>
<text text-anchor="middle" x="507" y="-294" font-family="Arial" font-size="10.00" fill="#ffffff">1.40%</text>
<text text-anchor="middle" x="507" y="-283" font-family="Arial" font-size="10.00" fill="#ffffff">(1.40%)</text>
</g>
</g>
</svg>
