<?xml version="1.0" encoding="UTF-8" standalone="no"?>
<!DOCTYPE svg PUBLIC "-//W3C//DTD SVG 1.1//EN"
 "http://www.w3.org/Graphics/SVG/1.1/DTD/svg11.dtd">
<!-- Generated by graphviz version 2.38.0 (20140413.2041)
 -->
<!-- Title: %3 Pages: 1 -->
<svg width="786pt" height="325pt"
 viewBox="0.00 0.00 786.00 325.00" xmlns="http://www.w3.org/2000/svg" xmlns:xlink="http://www.w3.org/1999/xlink">
<g id="graph0" class="graph" transform="scale(1 1) rotate(0) translate(4 321)">
<title>%3</title>
<polygon fill="white" stroke="none" points="-4,4 -4,-321 782,-321 782,4 -4,4"/>
<!-- 1 -->
<g id="node1" class="node"><title>1</title>
<polygon fill="#4fc308" stroke="#4fc308" points="266,-317 210,-317 210,-276 266,-276 266,-317"/>
<text text-anchor="middle" x="238" y="-305" font-family="Arial" font-size="10.00" fill="#ffffff">loop</text>
<text text-anchor="middle" x="238" y="-294" font-family="Arial" font-size="10.00" fill="#ffffff">59.43%</text>
<text text-anchor="middle" x="238" y="-283" font-family="Arial" font-size="10.00" fill="#ffffff">(59.43%)</text>
</g>
<!-- 2 -->
<g id="node2" class="node"><title>2</title>
<polygon fill="#0c738d" stroke="#0c738d" points="122,-144 7.10543e-015,-144 7.10543e-015,-92 122,-92 122,-144"/>
<text text-anchor="middle" x="61" y="-132" font-family="Arial" font-size="10.00" fill="#ffffff">WAIT1_WaitLongCycles</text>
<text text-anchor="middle" x="61" y="-121" font-family="Arial" font-size="10.00" fill="#ffffff">19.95%</text>
<text text-anchor="middle" x="61" y="-110" font-family="Arial" font-size="10.00" fill="#ffffff">(1.02%)</text>
<text text-anchor="middle" x="61" y="-99" font-family="Arial" font-size="10.00" fill="#ffffff">40492×</text>
</g>
<!-- 5 -->
<g id="node3" class="node"><title>5</title>
<polygon fill="#0c6c8b" stroke="#0c6c8b" points="111.5,-52 10.5,-52 10.5,-0 111.5,-0 111.5,-52"/>
<text text-anchor="middle" x="61" y="-40" font-family="Arial" font-size="10.00" fill="#ffffff">WAIT1_WaitCycles</text>
<text text-anchor="middle" x="61" y="-29" font-family="Arial" font-size="10.00" fill="#ffffff">18.93%</text>
<text text-anchor="middle" x="61" y="-18" font-family="Arial" font-size="10.00" fill="#ffffff">(18.93%)</text>
<text text-anchor="middle" x="61" y="-7" font-family="Arial" font-size="10.00" fill="#ffffff">40493×</text>
</g>
<!-- 2&#45;&gt;5 -->
<g id="edge1" class="edge"><title>2&#45;&gt;5</title>
<path fill="none" stroke="#0c6c8b" stroke-width="0.76" d="M61,-91.93C61,-81.0017 61,-68.1083 61,-56.7029"/>
<polygon fill="#0c6c8b" stroke="#0c6c8b" stroke-width="0.76" points="62.5401,-56.6477 61,-52.2477 59.4601,-56.6478 62.5401,-56.6477"/>
<text text-anchor="middle" x="78" y="-75" font-family="Arial" font-size="10.00" fill="#0c6c8b">18.93%</text>
<text text-anchor="middle" x="78" y="-64" font-family="Arial" font-size="10.00" fill="#0c6c8b">40493×</text>
</g>
<!-- 3 -->
<g id="node4" class="node"><title>3</title>
<polygon fill="#0c738d" stroke="#0c738d" points="233.5,-236 148.5,-236 148.5,-184 233.5,-184 233.5,-236"/>
<text text-anchor="middle" x="191" y="-224" font-family="Arial" font-size="10.00" fill="#ffffff">WAIT1_Waitms</text>
<text text-anchor="middle" x="191" y="-213" font-family="Arial" font-size="10.00" fill="#ffffff">19.95%</text>
<text text-anchor="middle" x="191" y="-202" font-family="Arial" font-size="10.00" fill="#ffffff">(0.00%)</text>
<text text-anchor="middle" x="191" y="-191" font-family="Arial" font-size="10.00" fill="#ffffff">81×</text>
</g>
<!-- 3&#45;&gt;2 -->
<g id="edge2" class="edge"><title>3&#45;&gt;2</title>
<path fill="none" stroke="#0c738d" stroke-width="0.8" d="M148.203,-185.861C142.332,-182.367 136.453,-178.692 131,-175 118.387,-166.46 105.186,-156.265 93.6908,-146.928"/>
<polygon fill="#0c738d" stroke="#0c738d" stroke-width="0.8" points="94.6622,-145.688 90.1807,-144.061 92.6694,-148.127 94.6622,-145.688"/>
<text text-anchor="middle" x="148" y="-167" font-family="Arial" font-size="10.00" fill="#0c738d">19.95%</text>
<text text-anchor="middle" x="148" y="-156" font-family="Arial" font-size="10.00" fill="#0c738d">40492×</text>
</g>
<!-- 4 -->
<g id="node5" class="node"><title>4</title>
<polygon fill="#0c738d" stroke="#0c738d" points="325,-317 275,-317 275,-276 325,-276 325,-317"/>
<text text-anchor="middle" x="300" y="-305" font-family="Arial" font-size="10.00" fill="#ffffff">main</text>
<text text-anchor="middle" x="300" y="-294" font-family="Arial" font-size="10.00" fill="#ffffff">19.95%</text>
<text text-anchor="middle" x="300" y="-283" font-family="Arial" font-size="10.00" fill="#ffffff">(0.00%)</text>
</g>
<!-- 4&#45;&gt;3 -->
<g id="edge3" class="edge"><title>4&#45;&gt;3</title>
<path fill="none" stroke="#0c738d" stroke-width="0.8" d="M274.993,-276.114C260.855,-265.154 242.928,-251.256 227.27,-239.118"/>
<polygon fill="#0c738d" stroke="#0c738d" stroke-width="0.8" points="227.863,-237.585 223.342,-236.072 225.933,-240.074 227.863,-237.585"/>
<text text-anchor="middle" x="279" y="-259" font-family="Arial" font-size="10.00" fill="#0c738d">19.95%</text>
<text text-anchor="middle" x="279" y="-248" font-family="Arial" font-size="10.00" fill="#0c738d">81×</text>
</g>
<!-- 10 -->
<g id="node6" class="node"><title>10</title>
<polygon fill="#0d0d73" stroke="#0d0d73" points="413.5,-236 338.5,-236 338.5,-184 413.5,-184 413.5,-236"/>
<text text-anchor="middle" x="376" y="-224" font-family="Arial" font-size="10.00" fill="#ffffff">control_LEDs</text>
<text text-anchor="middle" x="376" y="-213" font-family="Arial" font-size="10.00" fill="#ffffff">0.00%</text>
<text text-anchor="middle" x="376" y="-202" font-family="Arial" font-size="10.00" fill="#ffffff">(0.00%)</text>
<text text-anchor="middle" x="376" y="-191" font-family="Arial" font-size="10.00" fill="#ffffff">81×</text>
</g>
<!-- 4&#45;&gt;10 -->
<g id="edge4" class="edge"><title>4&#45;&gt;10</title>
<path fill="none" stroke="#0d0d73" stroke-width="0.5" d="M317.627,-275.902C327.493,-264.933 339.959,-251.072 350.836,-238.978"/>
<polygon fill="#0d0d73" stroke="#0d0d73" stroke-width="0.5" points="351.845,-239.688 353.275,-236.267 350.023,-238.05 351.845,-239.688"/>
<text text-anchor="middle" x="359" y="-259" font-family="Arial" font-size="10.00" fill="#0d0d73">0.00%</text>
<text text-anchor="middle" x="359" y="-248" font-family="Arial" font-size="10.00" fill="#0d0d73">81×</text>
</g>
<!-- 11 -->
<g id="node11" class="node"><title>11</title>
<polygon fill="#0d0d73" stroke="#0d0d73" points="220.5,-144 131.5,-144 131.5,-92 220.5,-92 220.5,-144"/>
<text text-anchor="middle" x="176" y="-132" font-family="Arial" font-size="10.00" fill="#ffffff">BitIoLdd2_ClrVal</text>
<text text-anchor="middle" x="176" y="-121" font-family="Arial" font-size="10.00" fill="#ffffff">0.00%</text>
<text text-anchor="middle" x="176" y="-110" font-family="Arial" font-size="10.00" fill="#ffffff">(0.00%)</text>
<text text-anchor="middle" x="176" y="-99" font-family="Arial" font-size="10.00" fill="#ffffff">41×</text>
</g>
<!-- 10&#45;&gt;11 -->
<g id="edge5" class="edge"><title>10&#45;&gt;11</title>
<path fill="none" stroke="#0d0d73" stroke-width="0.5" d="M338.413,-196.076C321.855,-190.097 302.278,-182.635 285,-175 264.581,-165.977 242.588,-154.943 223.743,-145.062"/>
<polygon fill="#0d0d73" stroke="#0d0d73" stroke-width="0.5" points="224.172,-143.904 220.504,-143.359 223.032,-146.072 224.172,-143.904"/>
<text text-anchor="middle" x="299" y="-167" font-family="Arial" font-size="10.00" fill="#0d0d73">0.00%</text>
<text text-anchor="middle" x="299" y="-156" font-family="Arial" font-size="10.00" fill="#0d0d73">41×</text>
</g>
<!-- 12 -->
<g id="node12" class="node"><title>12</title>
<polygon fill="#0d0d73" stroke="#0d0d73" points="322,-144 230,-144 230,-92 322,-92 322,-144"/>
<text text-anchor="middle" x="276" y="-132" font-family="Arial" font-size="10.00" fill="#ffffff">BitIoLdd3_SetVal</text>
<text text-anchor="middle" x="276" y="-121" font-family="Arial" font-size="10.00" fill="#ffffff">0.00%</text>
<text text-anchor="middle" x="276" y="-110" font-family="Arial" font-size="10.00" fill="#ffffff">(0.00%)</text>
<text text-anchor="middle" x="276" y="-99" font-family="Arial" font-size="10.00" fill="#ffffff">41×</text>
</g>
<!-- 10&#45;&gt;12 -->
<g id="edge6" class="edge"><title>10&#45;&gt;12</title>
<path fill="none" stroke="#0d0d73" stroke-width="0.5" d="M348.144,-183.93C335.25,-172.325 319.893,-158.503 306.668,-146.601"/>
<polygon fill="#0d0d73" stroke="#0d0d73" stroke-width="0.5" points="307.474,-145.679 304.053,-144.248 305.835,-147.5 307.474,-145.679"/>
<text text-anchor="middle" x="352" y="-167" font-family="Arial" font-size="10.00" fill="#0d0d73">0.00%</text>
<text text-anchor="middle" x="352" y="-156" font-family="Arial" font-size="10.00" fill="#0d0d73">41×</text>
</g>
<!-- 13 -->
<g id="node13" class="node"><title>13</title>
<polygon fill="#0d0d73" stroke="#0d0d73" points="420.5,-144 331.5,-144 331.5,-92 420.5,-92 420.5,-144"/>
<text text-anchor="middle" x="376" y="-132" font-family="Arial" font-size="10.00" fill="#ffffff">BitIoLdd4_ClrVal</text>
<text text-anchor="middle" x="376" y="-121" font-family="Arial" font-size="10.00" fill="#ffffff">0.00%</text>
<text text-anchor="middle" x="376" y="-110" font-family="Arial" font-size="10.00" fill="#ffffff">(0.00%)</text>
<text text-anchor="middle" x="376" y="-99" font-family="Arial" font-size="10.00" fill="#ffffff">41×</text>
</g>
<!-- 10&#45;&gt;13 -->
<g id="edge7" class="edge"><title>10&#45;&gt;13</title>
<path fill="none" stroke="#0d0d73" stroke-width="0.5" d="M376,-183.93C376,-172.712 376,-159.422 376,-147.798"/>
<polygon fill="#0d0d73" stroke="#0d0d73" stroke-width="0.5" points="377.225,-147.748 376,-144.248 374.775,-147.748 377.225,-147.748"/>
<text text-anchor="middle" x="390" y="-167" font-family="Arial" font-size="10.00" fill="#0d0d73">0.00%</text>
<text text-anchor="middle" x="390" y="-156" font-family="Arial" font-size="10.00" fill="#0d0d73">41×</text>
</g>
<!-- 14 -->
<g id="node14" class="node"><title>14</title>
<polygon fill="#0d0d73" stroke="#0d0d73" points="522,-144 430,-144 430,-92 522,-92 522,-144"/>
<text text-anchor="middle" x="476" y="-132" font-family="Arial" font-size="10.00" fill="#ffffff">BitIoLdd2_SetVal</text>
<text text-anchor="middle" x="476" y="-121" font-family="Arial" font-size="10.00" fill="#ffffff">0.00%</text>
<text text-anchor="middle" x="476" y="-110" font-family="Arial" font-size="10.00" fill="#ffffff">(0.00%)</text>
<text text-anchor="middle" x="476" y="-99" font-family="Arial" font-size="10.00" fill="#ffffff">40×</text>
</g>
<!-- 10&#45;&gt;14 -->
<g id="edge8" class="edge"><title>10&#45;&gt;14</title>
<path fill="none" stroke="#0d0d73" stroke-width="0.5" d="M403.856,-183.93C416.75,-172.325 432.107,-158.503 445.332,-146.601"/>
<polygon fill="#0d0d73" stroke="#0d0d73" stroke-width="0.5" points="446.165,-147.5 447.947,-144.248 444.526,-145.679 446.165,-147.5"/>
<text text-anchor="middle" x="451" y="-167" font-family="Arial" font-size="10.00" fill="#0d0d73">0.00%</text>
<text text-anchor="middle" x="451" y="-156" font-family="Arial" font-size="10.00" fill="#0d0d73">40×</text>
</g>
<!-- 15 -->
<g id="node15" class="node"><title>15</title>
<polygon fill="#0d0d73" stroke="#0d0d73" points="620.5,-144 531.5,-144 531.5,-92 620.5,-92 620.5,-144"/>
<text text-anchor="middle" x="576" y="-132" font-family="Arial" font-size="10.00" fill="#ffffff">BitIoLdd3_ClrVal</text>
<text text-anchor="middle" x="576" y="-121" font-family="Arial" font-size="10.00" fill="#ffffff">0.00%</text>
<text text-anchor="middle" x="576" y="-110" font-family="Arial" font-size="10.00" fill="#ffffff">(0.00%)</text>
<text text-anchor="middle" x="576" y="-99" font-family="Arial" font-size="10.00" fill="#ffffff">40×</text>
</g>
<!-- 10&#45;&gt;15 -->
<g id="edge9" class="edge"><title>10&#45;&gt;15</title>
<path fill="none" stroke="#0d0d73" stroke-width="0.5" d="M413.587,-196.076C430.145,-190.097 449.722,-182.635 467,-175 487.419,-165.977 509.412,-154.943 528.257,-145.062"/>
<polygon fill="#0d0d73" stroke="#0d0d73" stroke-width="0.5" points="528.968,-146.072 531.496,-143.359 527.828,-143.904 528.968,-146.072"/>
<text text-anchor="middle" x="526" y="-167" font-family="Arial" font-size="10.00" fill="#0d0d73">0.00%</text>
<text text-anchor="middle" x="526" y="-156" font-family="Arial" font-size="10.00" fill="#0d0d73">40×</text>
</g>
<!-- 16 -->
<g id="node16" class="node"><title>16</title>
<polygon fill="#0d0d73" stroke="#0d0d73" points="722,-144 630,-144 630,-92 722,-92 722,-144"/>
<text text-anchor="middle" x="676" y="-132" font-family="Arial" font-size="10.00" fill="#ffffff">BitIoLdd4_SetVal</text>
<text text-anchor="middle" x="676" y="-121" font-family="Arial" font-size="10.00" fill="#ffffff">0.00%</text>
<text text-anchor="middle" x="676" y="-110" font-family="Arial" font-size="10.00" fill="#ffffff">(0.00%)</text>
<text text-anchor="middle" x="676" y="-99" font-family="Arial" font-size="10.00" fill="#ffffff">40×</text>
</g>
<!-- 10&#45;&gt;16 -->
<g id="edge10" class="edge"><title>10&#45;&gt;16</title>
<path fill="none" stroke="#0d0d73" stroke-width="0.5" d="M413.652,-203.009C447.563,-197.208 498.599,-187.468 542,-175 579.847,-164.128 588.833,-159.574 625,-144 625.509,-143.781 626.021,-143.559 626.535,-143.335"/>
<polygon fill="#0d0d73" stroke="#0d0d73" stroke-width="0.5" points="627.242,-144.362 629.948,-141.826 626.252,-142.121 627.242,-144.362"/>
<text text-anchor="middle" x="616" y="-167" font-family="Arial" font-size="10.00" fill="#0d0d73">0.00%</text>
<text text-anchor="middle" x="616" y="-156" font-family="Arial" font-size="10.00" fill="#0d0d73">40×</text>
</g>
<!-- 6 -->
<g id="node7" class="node"><title>6</title>
<polygon fill="#0d3a7f" stroke="#0d3a7f" points="451.5,-317 334.5,-317 334.5,-276 451.5,-276 451.5,-317"/>
<text text-anchor="middle" x="393" y="-305" font-family="Arial" font-size="10.00" fill="#ffffff">WAIT1_Wait100Cycles</text>
<text text-anchor="middle" x="393" y="-294" font-family="Arial" font-size="10.00" fill="#ffffff">9.85%</text>
<text text-anchor="middle" x="393" y="-283" font-family="Arial" font-size="10.00" fill="#ffffff">(9.85%)</text>
</g>
<!-- 7 -->
<g id="node8" class="node"><title>7</title>
<polygon fill="#0d397f" stroke="#0d397f" points="551.5,-317 460.5,-317 460.5,-276 551.5,-276 551.5,-317"/>
<text text-anchor="middle" x="506" y="-305" font-family="Arial" font-size="10.00" fill="#ffffff">_mcount_internal</text>
<text text-anchor="middle" x="506" y="-294" font-family="Arial" font-size="10.00" fill="#ffffff">9.61%</text>
<text text-anchor="middle" x="506" y="-283" font-family="Arial" font-size="10.00" fill="#ffffff">(9.61%)</text>
</g>
<!-- 8 -->
<g id="node9" class="node"><title>8</title>
<polygon fill="#0d1274" stroke="#0d1274" points="673,-317 561,-317 561,-276 673,-276 673,-317"/>
<text text-anchor="middle" x="617" y="-305" font-family="Arial" font-size="10.00" fill="#ffffff">WAIT1_Wait10Cycles</text>
<text text-anchor="middle" x="617" y="-294" font-family="Arial" font-size="10.00" fill="#ffffff">1.15%</text>
<text text-anchor="middle" x="617" y="-283" font-family="Arial" font-size="10.00" fill="#ffffff">(1.15%)</text>
</g>
<!-- 9 -->
<g id="node10" class="node"><title>9</title>
<polygon fill="#0d0d73" stroke="#0d0d73" points="778,-317 682,-317 682,-276 778,-276 778,-317"/>
<text text-anchor="middle" x="730" y="-305" font-family="Arial" font-size="10.00" fill="#ffffff">__gnu_mcount_nc</text>
<text text-anchor="middle" x="730" y="-294" font-family="Arial" font-size="10.00" fill="#ffffff">0.02%</text>
<text text-anchor="middle" x="730" y="-283" font-family="Arial" font-size="10.00" fill="#ffffff">(0.02%)</text>
</g>
</g>
</svg>
