<?xml version="1.0" encoding="UTF-8" standalone="no"?>
<!DOCTYPE svg PUBLIC "-//W3C//DTD SVG 1.1//EN"
 "http://www.w3.org/Graphics/SVG/1.1/DTD/svg11.dtd">
<!-- Generated by graphviz version 2.38.0 (20140413.2041)
 -->
<!-- Title: %3 Pages: 1 -->
<svg width="785pt" height="325pt"
 viewBox="0.00 0.00 785.00 325.00" xmlns="http://www.w3.org/2000/svg" xmlns:xlink="http://www.w3.org/1999/xlink">
<g id="graph0" class="graph" transform="scale(1 1) rotate(0) translate(4 321)">
<title>%3</title>
<polygon fill="white" stroke="none" points="-4,4 -4,-321 781,-321 781,4 -4,4"/>
<!-- 1 -->
<g id="node1" class="node"><title>1</title>
<polygon fill="#4ec308" stroke="#4ec308" points="265,-317 209,-317 209,-276 265,-276 265,-317"/>
<text text-anchor="middle" x="237" y="-305" font-family="Arial" font-size="10.00" fill="#ffffff">loop</text>
<text text-anchor="middle" x="237" y="-294" font-family="Arial" font-size="10.00" fill="#ffffff">59.32%</text>
<text text-anchor="middle" x="237" y="-283" font-family="Arial" font-size="10.00" fill="#ffffff">(59.32%)</text>
</g>
<!-- 2 -->
<g id="node2" class="node"><title>2</title>
<polygon fill="#0c738d" stroke="#0c738d" points="122,-144 7.10543e-015,-144 7.10543e-015,-92 122,-92 122,-144"/>
<text text-anchor="middle" x="61" y="-132" font-family="Arial" font-size="10.00" fill="#ffffff">WAIT1_WaitLongCycles</text>
<text text-anchor="middle" x="61" y="-121" font-family="Arial" font-size="10.00" fill="#ffffff">20.02%</text>
<text text-anchor="middle" x="61" y="-110" font-family="Arial" font-size="10.00" fill="#ffffff">(1.10%)</text>
<text text-anchor="middle" x="61" y="-99" font-family="Arial" font-size="10.00" fill="#ffffff">13155×</text>
</g>
<!-- 5 -->
<g id="node3" class="node"><title>5</title>
<polygon fill="#0c6c8b" stroke="#0c6c8b" points="111.5,-52 10.5,-52 10.5,-0 111.5,-0 111.5,-52"/>
<text text-anchor="middle" x="61" y="-40" font-family="Arial" font-size="10.00" fill="#ffffff">WAIT1_WaitCycles</text>
<text text-anchor="middle" x="61" y="-29" font-family="Arial" font-size="10.00" fill="#ffffff">18.92%</text>
<text text-anchor="middle" x="61" y="-18" font-family="Arial" font-size="10.00" fill="#ffffff">(18.92%)</text>
<text text-anchor="middle" x="61" y="-7" font-family="Arial" font-size="10.00" fill="#ffffff">13155×</text>
</g>
<!-- 2&#45;&gt;5 -->
<g id="edge1" class="edge"><title>2&#45;&gt;5</title>
<path fill="none" stroke="#0c6c8b" stroke-width="0.76" d="M61,-91.93C61,-81.0017 61,-68.1083 61,-56.7029"/>
<polygon fill="#0c6c8b" stroke="#0c6c8b" stroke-width="0.76" points="62.5051,-56.5477 61,-52.2477 59.4951,-56.5478 62.5051,-56.5477"/>
<text text-anchor="middle" x="78" y="-75" font-family="Arial" font-size="10.00" fill="#0c6c8b">18.92%</text>
<text text-anchor="middle" x="78" y="-64" font-family="Arial" font-size="10.00" fill="#0c6c8b">13155×</text>
</g>
<!-- 3 -->
<g id="node4" class="node"><title>3</title>
<polygon fill="#0c738d" stroke="#0c738d" points="232.5,-236 147.5,-236 147.5,-184 232.5,-184 232.5,-236"/>
<text text-anchor="middle" x="190" y="-224" font-family="Arial" font-size="10.00" fill="#ffffff">WAIT1_Waitms</text>
<text text-anchor="middle" x="190" y="-213" font-family="Arial" font-size="10.00" fill="#ffffff">20.02%</text>
<text text-anchor="middle" x="190" y="-202" font-family="Arial" font-size="10.00" fill="#ffffff">(0.00%)</text>
<text text-anchor="middle" x="190" y="-191" font-family="Arial" font-size="10.00" fill="#ffffff">26×</text>
</g>
<!-- 3&#45;&gt;2 -->
<g id="edge2" class="edge"><title>3&#45;&gt;2</title>
<path fill="none" stroke="#0c738d" stroke-width="0.8" d="M147.303,-185.43C141.737,-182.058 136.176,-178.532 131,-175 118.418,-166.415 105.224,-156.208 93.7263,-146.876"/>
<polygon fill="#0c738d" stroke="#0c738d" stroke-width="0.8" points="94.6972,-145.635 90.215,-144.01 92.7055,-148.076 94.6972,-145.635"/>
<text text-anchor="middle" x="148" y="-167" font-family="Arial" font-size="10.00" fill="#0c738d">20.02%</text>
<text text-anchor="middle" x="148" y="-156" font-family="Arial" font-size="10.00" fill="#0c738d">13155×</text>
</g>
<!-- 4 -->
<g id="node5" class="node"><title>4</title>
<polygon fill="#0c738d" stroke="#0c738d" points="324,-317 274,-317 274,-276 324,-276 324,-317"/>
<text text-anchor="middle" x="299" y="-305" font-family="Arial" font-size="10.00" fill="#ffffff">main</text>
<text text-anchor="middle" x="299" y="-294" font-family="Arial" font-size="10.00" fill="#ffffff">20.02%</text>
<text text-anchor="middle" x="299" y="-283" font-family="Arial" font-size="10.00" fill="#ffffff">(0.00%)</text>
</g>
<!-- 4&#45;&gt;3 -->
<g id="edge3" class="edge"><title>4&#45;&gt;3</title>
<path fill="none" stroke="#0c738d" stroke-width="0.8" d="M273.993,-276.114C259.855,-265.154 241.928,-251.256 226.27,-239.118"/>
<polygon fill="#0c738d" stroke="#0c738d" stroke-width="0.8" points="226.863,-237.585 222.342,-236.072 224.933,-240.074 226.863,-237.585"/>
<text text-anchor="middle" x="278" y="-259" font-family="Arial" font-size="10.00" fill="#0c738d">20.02%</text>
<text text-anchor="middle" x="278" y="-248" font-family="Arial" font-size="10.00" fill="#0c738d">26×</text>
</g>
<!-- 10 -->
<g id="node6" class="node"><title>10</title>
<polygon fill="#0d0d73" stroke="#0d0d73" points="411.5,-236 336.5,-236 336.5,-184 411.5,-184 411.5,-236"/>
<text text-anchor="middle" x="374" y="-224" font-family="Arial" font-size="10.00" fill="#ffffff">control_LEDs</text>
<text text-anchor="middle" x="374" y="-213" font-family="Arial" font-size="10.00" fill="#ffffff">0.00%</text>
<text text-anchor="middle" x="374" y="-202" font-family="Arial" font-size="10.00" fill="#ffffff">(0.00%)</text>
<text text-anchor="middle" x="374" y="-191" font-family="Arial" font-size="10.00" fill="#ffffff">26×</text>
</g>
<!-- 4&#45;&gt;10 -->
<g id="edge4" class="edge"><title>4&#45;&gt;10</title>
<path fill="none" stroke="#0d0d73" stroke-width="0.5" d="M316.395,-275.902C326.131,-264.933 338.433,-251.072 349.167,-238.978"/>
<polygon fill="#0d0d73" stroke="#0d0d73" stroke-width="0.5" points="350.167,-239.698 351.574,-236.267 348.334,-238.071 350.167,-239.698"/>
<text text-anchor="middle" x="358" y="-259" font-family="Arial" font-size="10.00" fill="#0d0d73">0.00%</text>
<text text-anchor="middle" x="358" y="-248" font-family="Arial" font-size="10.00" fill="#0d0d73">26×</text>
</g>
<!-- 11 -->
<g id="node11" class="node"><title>11</title>
<polygon fill="#0d0d73" stroke="#0d0d73" points="220.5,-144 131.5,-144 131.5,-92 220.5,-92 220.5,-144"/>
<text text-anchor="middle" x="176" y="-132" font-family="Arial" font-size="10.00" fill="#ffffff">BitIoLdd4_ClrVal</text>
<text text-anchor="middle" x="176" y="-121" font-family="Arial" font-size="10.00" fill="#ffffff">0.00%</text>
<text text-anchor="middle" x="176" y="-110" font-family="Arial" font-size="10.00" fill="#ffffff">(0.00%)</text>
<text text-anchor="middle" x="176" y="-99" font-family="Arial" font-size="10.00" fill="#ffffff">14×</text>
</g>
<!-- 10&#45;&gt;11 -->
<g id="edge5" class="edge"><title>10&#45;&gt;11</title>
<path fill="none" stroke="#0d0d73" stroke-width="0.5" d="M336.386,-196.138C319.823,-190.17 300.249,-182.7 283,-175 263.273,-166.193 242.091,-155.404 223.822,-145.654"/>
<polygon fill="#0d0d73" stroke="#0d0d73" stroke-width="0.5" points="224.346,-144.545 220.682,-143.973 223.189,-146.705 224.346,-144.545"/>
<text text-anchor="middle" x="297" y="-167" font-family="Arial" font-size="10.00" fill="#0d0d73">0.00%</text>
<text text-anchor="middle" x="297" y="-156" font-family="Arial" font-size="10.00" fill="#0d0d73">14×</text>
</g>
<!-- 12 -->
<g id="node12" class="node"><title>12</title>
<polygon fill="#0d0d73" stroke="#0d0d73" points="318.5,-144 229.5,-144 229.5,-92 318.5,-92 318.5,-144"/>
<text text-anchor="middle" x="274" y="-132" font-family="Arial" font-size="10.00" fill="#ffffff">BitIoLdd2_ClrVal</text>
<text text-anchor="middle" x="274" y="-121" font-family="Arial" font-size="10.00" fill="#ffffff">0.00%</text>
<text text-anchor="middle" x="274" y="-110" font-family="Arial" font-size="10.00" fill="#ffffff">(0.00%)</text>
<text text-anchor="middle" x="274" y="-99" font-family="Arial" font-size="10.00" fill="#ffffff">13×</text>
</g>
<!-- 10&#45;&gt;12 -->
<g id="edge6" class="edge"><title>10&#45;&gt;12</title>
<path fill="none" stroke="#0d0d73" stroke-width="0.5" d="M346.144,-183.93C333.25,-172.325 317.893,-158.503 304.668,-146.601"/>
<polygon fill="#0d0d73" stroke="#0d0d73" stroke-width="0.5" points="305.474,-145.679 302.053,-144.248 303.835,-147.5 305.474,-145.679"/>
<text text-anchor="middle" x="350" y="-167" font-family="Arial" font-size="10.00" fill="#0d0d73">0.00%</text>
<text text-anchor="middle" x="350" y="-156" font-family="Arial" font-size="10.00" fill="#0d0d73">13×</text>
</g>
<!-- 13 -->
<g id="node13" class="node"><title>13</title>
<polygon fill="#0d0d73" stroke="#0d0d73" points="420,-144 328,-144 328,-92 420,-92 420,-144"/>
<text text-anchor="middle" x="374" y="-132" font-family="Arial" font-size="10.00" fill="#ffffff">BitIoLdd2_SetVal</text>
<text text-anchor="middle" x="374" y="-121" font-family="Arial" font-size="10.00" fill="#ffffff">0.00%</text>
<text text-anchor="middle" x="374" y="-110" font-family="Arial" font-size="10.00" fill="#ffffff">(0.00%)</text>
<text text-anchor="middle" x="374" y="-99" font-family="Arial" font-size="10.00" fill="#ffffff">13×</text>
</g>
<!-- 10&#45;&gt;13 -->
<g id="edge7" class="edge"><title>10&#45;&gt;13</title>
<path fill="none" stroke="#0d0d73" stroke-width="0.5" d="M374,-183.93C374,-172.712 374,-159.422 374,-147.798"/>
<polygon fill="#0d0d73" stroke="#0d0d73" stroke-width="0.5" points="375.225,-147.748 374,-144.248 372.775,-147.748 375.225,-147.748"/>
<text text-anchor="middle" x="388" y="-167" font-family="Arial" font-size="10.00" fill="#0d0d73">0.00%</text>
<text text-anchor="middle" x="388" y="-156" font-family="Arial" font-size="10.00" fill="#0d0d73">13×</text>
</g>
<!-- 14 -->
<g id="node14" class="node"><title>14</title>
<polygon fill="#0d0d73" stroke="#0d0d73" points="518.5,-144 429.5,-144 429.5,-92 518.5,-92 518.5,-144"/>
<text text-anchor="middle" x="474" y="-132" font-family="Arial" font-size="10.00" fill="#ffffff">BitIoLdd3_ClrVal</text>
<text text-anchor="middle" x="474" y="-121" font-family="Arial" font-size="10.00" fill="#ffffff">0.00%</text>
<text text-anchor="middle" x="474" y="-110" font-family="Arial" font-size="10.00" fill="#ffffff">(0.00%)</text>
<text text-anchor="middle" x="474" y="-99" font-family="Arial" font-size="10.00" fill="#ffffff">13×</text>
</g>
<!-- 10&#45;&gt;14 -->
<g id="edge8" class="edge"><title>10&#45;&gt;14</title>
<path fill="none" stroke="#0d0d73" stroke-width="0.5" d="M401.856,-183.93C414.75,-172.325 430.107,-158.503 443.332,-146.601"/>
<polygon fill="#0d0d73" stroke="#0d0d73" stroke-width="0.5" points="444.165,-147.5 445.947,-144.248 442.526,-145.679 444.165,-147.5"/>
<text text-anchor="middle" x="449" y="-167" font-family="Arial" font-size="10.00" fill="#0d0d73">0.00%</text>
<text text-anchor="middle" x="449" y="-156" font-family="Arial" font-size="10.00" fill="#0d0d73">13×</text>
</g>
<!-- 15 -->
<g id="node15" class="node"><title>15</title>
<polygon fill="#0d0d73" stroke="#0d0d73" points="620,-144 528,-144 528,-92 620,-92 620,-144"/>
<text text-anchor="middle" x="574" y="-132" font-family="Arial" font-size="10.00" fill="#ffffff">BitIoLdd3_SetVal</text>
<text text-anchor="middle" x="574" y="-121" font-family="Arial" font-size="10.00" fill="#ffffff">0.00%</text>
<text text-anchor="middle" x="574" y="-110" font-family="Arial" font-size="10.00" fill="#ffffff">(0.00%)</text>
<text text-anchor="middle" x="574" y="-99" font-family="Arial" font-size="10.00" fill="#ffffff">13×</text>
</g>
<!-- 10&#45;&gt;15 -->
<g id="edge9" class="edge"><title>10&#45;&gt;15</title>
<path fill="none" stroke="#0d0d73" stroke-width="0.5" d="M411.587,-196.076C428.145,-190.097 447.722,-182.635 465,-175 484.959,-166.18 506.422,-155.439 524.979,-145.731"/>
<polygon fill="#0d0d73" stroke="#0d0d73" stroke-width="0.5" points="525.64,-146.768 528.17,-144.057 524.502,-144.598 525.64,-146.768"/>
<text text-anchor="middle" x="524" y="-167" font-family="Arial" font-size="10.00" fill="#0d0d73">0.00%</text>
<text text-anchor="middle" x="524" y="-156" font-family="Arial" font-size="10.00" fill="#0d0d73">13×</text>
</g>
<!-- 16 -->
<g id="node16" class="node"><title>16</title>
<polygon fill="#0d0d73" stroke="#0d0d73" points="721,-144 629,-144 629,-92 721,-92 721,-144"/>
<text text-anchor="middle" x="675" y="-132" font-family="Arial" font-size="10.00" fill="#ffffff">BitIoLdd4_SetVal</text>
<text text-anchor="middle" x="675" y="-121" font-family="Arial" font-size="10.00" fill="#ffffff">0.00%</text>
<text text-anchor="middle" x="675" y="-110" font-family="Arial" font-size="10.00" fill="#ffffff">(0.00%)</text>
<text text-anchor="middle" x="675" y="-99" font-family="Arial" font-size="10.00" fill="#ffffff">12×</text>
</g>
<!-- 10&#45;&gt;16 -->
<g id="edge10" class="edge"><title>10&#45;&gt;16</title>
<path fill="none" stroke="#0d0d73" stroke-width="0.5" d="M411.629,-202.928C445.525,-197.074 496.551,-187.3 540,-175 578.691,-164.047 588.068,-159.906 625,-144 625.156,-143.933 625.312,-143.865 625.469,-143.798"/>
<polygon fill="#0d0d73" stroke="#0d0d73" stroke-width="0.5" points="626.067,-144.873 628.778,-142.343 625.081,-142.63 626.067,-144.873"/>
<text text-anchor="middle" x="616" y="-167" font-family="Arial" font-size="10.00" fill="#0d0d73">0.00%</text>
<text text-anchor="middle" x="616" y="-156" font-family="Arial" font-size="10.00" fill="#0d0d73">12×</text>
</g>
<!-- 6 -->
<g id="node7" class="node"><title>6</title>
<polygon fill="#0d3b80" stroke="#0d3b80" points="450.5,-317 333.5,-317 333.5,-276 450.5,-276 450.5,-317"/>
<text text-anchor="middle" x="392" y="-305" font-family="Arial" font-size="10.00" fill="#ffffff">WAIT1_Wait100Cycles</text>
<text text-anchor="middle" x="392" y="-294" font-family="Arial" font-size="10.00" fill="#ffffff">9.98%</text>
<text text-anchor="middle" x="392" y="-283" font-family="Arial" font-size="10.00" fill="#ffffff">(9.98%)</text>
</g>
<!-- 7 -->
<g id="node8" class="node"><title>7</title>
<polygon fill="#0d387f" stroke="#0d387f" points="550.5,-317 459.5,-317 459.5,-276 550.5,-276 550.5,-317"/>
<text text-anchor="middle" x="505" y="-305" font-family="Arial" font-size="10.00" fill="#ffffff">_mcount_internal</text>
<text text-anchor="middle" x="505" y="-294" font-family="Arial" font-size="10.00" fill="#ffffff">9.52%</text>
<text text-anchor="middle" x="505" y="-283" font-family="Arial" font-size="10.00" fill="#ffffff">(9.52%)</text>
</g>
<!-- 8 -->
<g id="node9" class="node"><title>8</title>
<polygon fill="#0d1274" stroke="#0d1274" points="672,-317 560,-317 560,-276 672,-276 672,-317"/>
<text text-anchor="middle" x="616" y="-305" font-family="Arial" font-size="10.00" fill="#ffffff">WAIT1_Wait10Cycles</text>
<text text-anchor="middle" x="616" y="-294" font-family="Arial" font-size="10.00" fill="#ffffff">1.16%</text>
<text text-anchor="middle" x="616" y="-283" font-family="Arial" font-size="10.00" fill="#ffffff">(1.16%)</text>
</g>
<!-- 9 -->
<g id="node10" class="node"><title>9</title>
<polygon fill="#0d0d73" stroke="#0d0d73" points="777,-317 681,-317 681,-276 777,-276 777,-317"/>
<text text-anchor="middle" x="729" y="-305" font-family="Arial" font-size="10.00" fill="#ffffff">__gnu_mcount_nc</text>
<text text-anchor="middle" x="729" y="-294" font-family="Arial" font-size="10.00" fill="#ffffff">0.00%</text>
<text text-anchor="middle" x="729" y="-283" font-family="Arial" font-size="10.00" fill="#ffffff">(0.00%)</text>
</g>
</g>
</svg>
